<svg width="83" height="20" viewBox="0 0 83 20" fill="none" xmlns="http://www.w3.org/2000/svg">
<circle cx="7" cy="10" r="4" fill="#00F3FF"/>
<path d="M29.04 15.224C28.08 15.224 27.216 15.128 26.448 14.936C25.68 14.7333 25.024 14.4507 24.48 14.088C23.936 13.7147 23.52 13.2773 23.232 12.776C22.944 12.264 22.8 11.6987 22.8 11.08C22.8 10.4613 22.944 9.896 23.232 9.384C23.52 8.872 23.936 8.43467 24.48 8.072C25.024 7.69867 25.68 7.416 26.448 7.224C27.216 7.02133 28.08 6.92 29.04 6.92C30.192 6.92 31.216 7.07467 32.112 7.384C33.0187 7.69333 33.728 8.15733 34.24 8.776C34.752 9.39467 35.008 10.1627 35.008 11.08C35.008 11.9547 34.752 12.7013 34.24 13.32C33.728 13.9387 33.0187 14.4133 32.112 14.744C31.216 15.064 30.192 15.224 29.04 15.224ZM27.6 12.792C28.3253 12.792 28.944 12.728 29.456 12.6C29.968 12.472 30.3573 12.28 30.624 12.024C30.8907 11.768 31.024 11.4533 31.024 11.08C31.024 10.504 30.7253 10.0773 30.128 9.8C29.5307 9.512 28.688 9.368 27.6 9.368C26.7893 9.368 26.0427 9.416 25.36 9.512C24.688 9.608 24.144 9.77867 23.728 10.024C23.3227 10.2693 23.12 10.6213 23.12 11.08C23.12 11.528 23.3227 11.8747 23.728 12.12C24.144 12.3653 24.688 12.5413 25.36 12.648C26.0427 12.744 26.7893 12.792 27.6 12.792ZM23.12 3.96V11.96C23.12 12.6427 23.0933 13.2613 23.04 13.816C22.9973 14.36 22.9493 14.7547 22.896 15H19.28V3.96H23.12ZM42.0905 15.224C40.9385 15.224 39.9145 15.064 39.0185 14.744C38.1225 14.4133 37.4132 13.9387 36.8905 13.32C36.3785 12.7013 36.1225 11.9547 36.1225 11.08C36.1225 10.1627 36.3785 9.39467 36.8905 8.776C37.4132 8.15733 38.1225 7.69333 39.0185 7.384C39.9145 7.07467 40.9385 6.92 42.0905 6.92C43.3705 6.92 44.4745 7.096 45.4025 7.448C46.3412 7.78933 47.0612 8.27467 47.5625 8.904C48.0745 9.52267 48.3305 10.248 48.3305 11.08C48.3305 11.6987 48.1865 12.264 47.8985 12.776C47.6105 13.2773 47.1945 13.7147 46.6505 14.088C46.1065 14.4507 45.4505 14.7333 44.6825 14.936C43.9145 15.128 43.0505 15.224 42.0905 15.224ZM43.5305 12.792C44.3412 12.792 45.0825 12.744 45.7545 12.648C46.4372 12.5413 46.9812 12.3653 47.3865 12.12C47.8025 11.8747 48.0105 11.528 48.0105 11.08C48.0105 10.6213 47.8025 10.2693 47.3865 10.024C46.9812 9.77867 46.4372 9.608 45.7545 9.512C45.0825 9.416 44.3412 9.368 43.5305 9.368C42.4425 9.368 41.5998 9.512 41.0025 9.8C40.4052 10.0773 40.1065 10.504 40.1065 11.08C40.1065 11.4533 40.2398 11.768 40.5065 12.024C40.7732 12.28 41.1625 12.472 41.6745 12.6C42.1865 12.728 42.8052 12.792 43.5305 12.792ZM48.0105 7.16H51.8505V15H48.2345C48.2345 15 48.2132 14.8773 48.1705 14.632C48.1385 14.3867 48.1012 14.0347 48.0585 13.576C48.0265 13.1173 48.0105 12.5787 48.0105 11.96V7.16ZM65.8581 9.56L57.2021 13.288L57.0581 12.6H65.9541V15H53.5381V12.6L62.1301 8.872L62.2741 9.56H53.5381V7.16H65.8581V9.56ZM78.4579 12.184H82.2339C82.1379 12.8027 81.8285 13.3413 81.3059 13.8C80.7939 14.2587 80.0419 14.616 79.0499 14.872C78.0685 15.1173 76.8152 15.24 75.2899 15.24C73.6792 15.24 72.2872 15.112 71.1139 14.856C69.9512 14.6 69.0552 14.168 68.4259 13.56C67.7965 12.952 67.4819 12.1307 67.4819 11.096C67.4819 10.072 67.7859 9.256 68.3939 8.648C69.0125 8.02933 69.9032 7.58667 71.0659 7.32C72.2285 7.05333 73.6365 6.92 75.2899 6.92C76.9112 6.92 78.2392 7.064 79.2739 7.352C80.3085 7.64 81.0712 8.10933 81.5619 8.76C82.0525 9.4 82.2872 10.2693 82.2659 11.368H71.3859C71.4392 11.6453 71.5885 11.9013 71.8339 12.136C72.0899 12.3707 72.4792 12.5627 73.0019 12.712C73.5352 12.8507 74.2445 12.92 75.1299 12.92C76.0472 12.92 76.7992 12.856 77.3859 12.728C77.9832 12.6 78.3405 12.4187 78.4579 12.184ZM75.1299 9.24C73.9992 9.24 73.1352 9.36267 72.5379 9.608C71.9512 9.85333 71.6045 10.0987 71.4979 10.344H78.5379C78.4632 10.0667 78.1645 9.816 77.6419 9.592C77.1192 9.35733 76.2819 9.24 75.1299 9.24Z" fill="white"/>
</svg>
