<svg width="100%" height="100%" viewBox="0 0 24 24" fill="none" xmlns="http://www.w3.org/2000/svg">
<g clip-path="url(#clip0_38_1470)">
<path d="M12.02 2.90991C8.71003 2.90991 6.02003 5.59991 6.02003 8.90991V11.7999C6.02003 12.4099 5.76003 13.3399 5.45003 13.8599L4.30003 15.7699C3.59003 16.9499 4.08003 18.2599 5.38003 18.6999C9.69003 20.1399 14.34 20.1399 18.65 18.6999C19.86 18.2999 20.39 16.8699 19.73 15.7699L18.58 13.8599C18.28 13.3399 18.02 12.4099 18.02 11.7999V8.90991C18.02 5.60991 15.32 2.90991 12.02 2.90991Z" stroke="currentColor" stroke-width="1.5" stroke-miterlimit="10" stroke-linecap="round"/>
<path d="M13.8702 3.19945C13.5602 3.10945 13.2402 3.03945 12.9102 2.99945C11.9502 2.87945 11.0302 2.94945 10.1702 3.19945C10.4602 2.45945 11.1802 1.93945 12.0202 1.93945C12.8602 1.93945 13.5802 2.45945 13.8702 3.19945Z" stroke="currentColor" stroke-width="1.5" stroke-miterlimit="10" stroke-linecap="round" stroke-linejoin="round"/>
<path d="M15.0199 19.0605C15.0199 20.7105 13.6699 22.0605 12.0199 22.0605C11.1999 22.0605 10.4399 21.7205 9.89993 21.1805C9.35993 20.6405 9.01993 19.8805 9.01993 19.0605" stroke="currentColor" stroke-width="1.5" stroke-miterlimit="10"/>
</g>
<defs>
<clipPath id="clip0_38_1470">
<rect width="100%" height="100%" fill="currentColor"/>
</clipPath>
</defs>
</svg>
