<svg width="20" height="20" viewBox="0 0 20 20" fill="none" xmlns="http://www.w3.org/2000/svg">
<path d="M18.6299 14.7411L18.6299 14.7413C18.5648 15.6468 18.2499 16.5476 17.5336 17.22C16.8147 17.8947 15.7868 18.25 14.4743 18.25H5.52438C4.21216 18.25 3.18237 17.8949 2.46244 17.2205C1.74498 16.5484 1.42931 15.6472 1.36869 14.7392C1.36865 14.7385 1.3686 14.7378 1.36856 14.7371L0.924865 8.5477C0.924845 8.54743 0.924824 8.54715 0.924804 8.54688C0.766315 6.39236 2.69372 4.75 4.87534 4.75C5.15426 4.75 5.37206 4.6089 5.4651 4.45571L6.07565 3.37586L6.07849 3.37085L6.07851 3.37086C6.36328 2.87612 6.83847 2.47855 7.33617 2.20776C7.83819 1.93461 8.43674 1.75 9.02579 1.75H10.9815C11.5673 1.75 12.164 1.93524 12.6643 2.20815C13.1605 2.47882 13.6355 2.87626 13.9202 3.37086L13.9231 3.37585L13.923 3.37586L14.5336 4.4557C14.6266 4.60889 14.8444 4.75 15.1234 4.75C17.3047 4.75 19.2319 6.39197 19.0739 8.54613L18.6299 14.7411ZM18.6299 14.7411L19.0738 8.5477L18.6299 14.7411Z" stroke="white" stroke-width="1.5" stroke-linecap="round" stroke-linejoin="round"/>
<path d="M13.25 11.25C13.25 9.45886 11.7911 8 10 8C8.20886 8 6.75 9.45886 6.75 11.25C6.75 13.0411 8.20886 14.5 10 14.5C11.7911 14.5 13.25 13.0411 13.25 11.25Z" stroke="white" stroke-width="1.5" stroke-linecap="round" stroke-linejoin="round"/>
</svg>
