<svg width="20" height="20" viewBox="0 0 20 20" fill="none" xmlns="http://www.w3.org/2000/svg">
<path d="M10.8243 10L14.9698 5.20092C15.0393 5.12117 14.9809 5 14.8735 5H13.6132C13.539 5 13.4679 5.03221 13.419 5.08742L9.99994 9.04601L6.58088 5.08742C6.53351 5.03221 6.46244 5 6.38664 5H5.1264C5.01902 5 4.96058 5.12117 5.03007 5.20092L9.17558 10L5.03007 14.7991C5.01451 14.8169 5.00452 14.8386 5.0013 14.8617C4.99808 14.8848 5.00176 14.9084 5.0119 14.9295C5.02204 14.9507 5.03822 14.9686 5.05852 14.9811C5.07882 14.9936 5.10238 15.0001 5.1264 15H6.38664C6.46086 15 6.53193 14.9678 6.58088 14.9126L9.99994 10.954L13.419 14.9126C13.4664 14.9678 13.5374 15 13.6132 15H14.8735C14.9809 15 15.0393 14.8788 14.9698 14.7991L10.8243 10Z" fill="currentColor"/>
</svg>
