<svg width="14" height="14" viewBox="0 0 14 14" fill="none" xmlns="http://www.w3.org/2000/svg">
<path d="M12.5 4C12.5 4.53701 12.0517 5.15779 11.019 5.67411C10.0163 6.17547 8.59606 6.5 7 6.5C5.40394 6.5 3.98369 6.17547 2.98097 5.67411C1.94833 5.15779 1.5 4.53701 1.5 4C1.5 3.46299 1.94833 2.84221 2.98097 2.32589C3.98369 1.82453 5.40394 1.5 7 1.5C8.59606 1.5 10.0163 1.82453 11.019 2.32589C12.0517 2.84221 12.5 3.46299 12.5 4Z" stroke="currentColor"/>
<path d="M13 7C13 7.79565 12.3679 8.55871 11.2426 9.12132C10.1174 9.68393 8.5913 10 7 10C5.4087 10 3.88258 9.68393 2.75736 9.12132C1.63214 8.55871 1 7.79565 1 7" stroke="currentColor" stroke-linecap="round"/>
<path d="M13 10C13 10.7956 12.3679 11.5587 11.2426 12.1213C10.1174 12.6839 8.5913 13 7 13C5.4087 13 3.88258 12.6839 2.75736 12.1213C1.63214 11.5587 1 10.7956 1 10" stroke="currentColor" stroke-linecap="round"/>
</svg>
