<svg width="20" height="20" viewBox="0 0 20 20" fill="none" xmlns="http://www.w3.org/2000/svg">
<g clip-path="url(#clip0_2157_49704)">
<path d="M9.99888 19.0077C9.39056 19.0077 8.81751 18.6991 8.41196 18.1613L7.08954 16.3981C7.06309 16.3628 6.95729 16.3188 6.91321 16.3099H6.4724C2.79606 16.3099 0.521484 15.3137 0.521484 10.359V5.95092C0.521484 2.05417 2.57565 0 6.4724 0H13.5253C17.4221 0 19.4763 2.05417 19.4763 5.95092V10.359C19.4763 14.2558 17.4221 16.3099 13.5253 16.3099H13.0845C13.014 16.3099 12.9523 16.3452 12.9082 16.3981L11.5858 18.1613C11.1802 18.6991 10.6072 19.0077 9.99888 19.0077ZM6.4724 1.32243C3.31621 1.32243 1.84391 2.79473 1.84391 5.95092V10.359C1.84391 14.3439 3.21042 14.9875 6.4724 14.9875H6.91321C7.36284 14.9875 7.87418 15.2432 8.14748 15.6046L9.4699 17.3679C9.77847 17.7734 10.2193 17.7734 10.5278 17.3679L11.8503 15.6046C12.1412 15.2167 12.5996 14.9875 13.0845 14.9875H13.5253C16.6815 14.9875 18.1538 13.5152 18.1538 10.359V5.95092C18.1538 2.79473 16.6815 1.32243 13.5253 1.32243H6.4724Z" fill="currentColor"/>
<path d="M10 10C9.44 10 9 9.55 9 9C9 8.45 9.45 8 10 8C10.55 8 11 8.45 11 9C11 9.55 10.56 10 10 10Z" fill="currentColor"/>
<path d="M14 10C13.44 10 13 9.55 13 9C13 8.45 13.45 8 14 8C14.55 8 15 8.45 15 9C15 9.55 14.56 10 14 10Z" fill="currentColor"/>
<path d="M6 10C5.44 10 5 9.55 5 9C5 8.45 5.45 8 6 8C6.55 8 7 8.45 7 9C7 9.55 6.56 10 6 10Z" fill="currentColor"/>
</g>
<defs>
<clipPath id="clip0_2157_49704">
<rect width="20" height="20" fill="currentColor"/>
</clipPath>
</defs>
</svg>
