<svg width="96" height="96" viewBox="0 0 96 96" fill="none" xmlns="http://www.w3.org/2000/svg">
<g clip-path="url(#clip0_1519_166348)">
<path fill-rule="evenodd" clip-rule="evenodd" d="M74.3281 31.3617C75.4033 30.6362 76.0399 28.7794 75.5457 25.6957C75.0696 22.7248 73.5891 19.0698 71.1679 15.4816C68.7468 11.8934 65.9115 9.1525 63.3348 7.59903C60.6602 5.98655 58.7001 5.8819 57.6249 6.60739C56.5497 7.33289 55.9131 9.18976 56.4073 12.2735C56.8834 15.2443 58.3639 18.8994 60.785 22.4875C63.2062 26.0757 66.0414 28.8166 68.6181 30.3701C71.2927 31.9826 73.2529 32.0872 74.3281 31.3617ZM73.2403 14.0832C75.8177 17.9031 77.4685 21.8954 78.0142 25.3001C78.5418 28.5919 78.0907 31.8388 75.7264 33.4341C75.5643 33.5435 75.3984 33.6416 75.229 33.7289L75.2473 33.7559L70.4512 36.9922C67.9953 38.6493 64.7256 37.9974 61.7446 36.316C58.6909 34.5935 55.5427 31.5972 52.9584 27.7672C50.3741 23.9372 48.7738 19.8963 48.3195 16.4198C47.8761 13.0263 48.4954 9.75024 50.9513 8.0931L55.7474 4.85689L55.7669 4.88592C55.9114 4.76154 56.0644 4.64441 56.2265 4.53504C58.5908 2.93975 61.7705 3.73671 64.6256 5.45803C67.5786 7.23836 70.6628 10.2634 73.2403 14.0832ZM53.7947 9.19038C53.6851 10.2934 53.7479 11.4783 53.9388 12.6691C54.4844 16.0738 56.1352 20.0661 58.7127 23.8859C61.2901 27.7057 64.3744 30.7308 67.3274 32.5111C68.3592 33.1332 69.4334 33.6345 70.4962 33.9459L69.0528 34.9198C67.8047 35.762 65.695 35.6739 62.9729 34.1385C60.3235 32.6441 57.445 29.9469 55.0307 26.3688C52.6164 22.7908 51.1926 19.112 50.7985 16.0959C50.3935 12.997 51.1015 11.0076 52.3496 10.1654L53.7947 9.19038Z" fill="#00F3FF"/>
<path fill-rule="evenodd" clip-rule="evenodd" d="M37.4562 41.2389C36.8669 40.0834 35.1013 39.2256 31.9804 39.341C28.9737 39.4521 25.1656 40.4769 21.3095 42.4435C17.4535 44.4101 14.3879 46.8909 12.5325 49.2594C10.6066 51.7179 10.2643 53.6508 10.8535 54.8063C11.4428 55.9618 13.2085 56.8196 16.3294 56.7042C19.3361 56.5931 23.1441 55.5683 27.0002 53.6017C30.8563 51.6351 33.9218 49.1544 35.7772 46.7858C37.7031 44.3273 38.0455 42.3944 37.4562 41.2389ZM20.1737 40.2164C24.2788 38.1229 28.4422 36.9701 31.888 36.8427C35.2196 36.7196 38.3875 37.5623 39.6833 40.1031C39.7725 40.2781 39.8501 40.4556 39.9164 40.6352L39.9459 40.6201L42.5745 45.7743C43.9205 48.4136 42.8756 51.5797 40.8441 54.3339C38.7629 57.1554 35.4057 59.9157 31.2898 62.0148C27.1738 64.1139 22.9683 65.2106 19.4624 65.2386C16.04 65.2658 12.8637 64.2526 11.5177 61.6133L8.88902 56.4591L8.92029 56.4432C8.81383 56.284 8.71571 56.1171 8.62646 55.9421C7.33067 53.4013 8.50857 50.3422 10.5645 47.7177C12.6909 45.0033 16.0687 42.31 20.1737 40.2164ZM12.9516 58.9224C14.033 59.1652 15.2167 59.2471 16.4217 59.2025C19.8675 59.0751 24.031 57.9223 28.136 55.8288C32.2411 53.7352 35.6189 51.0419 37.7453 48.3275C38.4883 47.3789 39.1167 46.3736 39.555 45.3565L40.3474 46.9101C41.0315 48.2514 40.6874 50.3348 38.8322 52.8499C37.0266 55.2977 33.9991 57.8267 30.154 59.7877C26.3088 61.7487 22.4841 62.7144 19.4424 62.7386C16.3172 62.7635 14.4288 61.8188 13.7448 60.4775L12.9516 58.9224Z" fill="#00F3FF"/>
<path fill-rule="evenodd" clip-rule="evenodd" d="M73.4449 80.2791C73.889 79.0604 73.3136 77.1837 71.1024 74.9782C68.9722 72.8534 65.6272 70.7648 61.5602 69.2828C57.4932 67.8008 53.5886 67.2477 50.5908 67.5038C47.4791 67.7697 45.8312 68.8363 45.3871 70.055C44.943 71.2736 45.5184 73.1504 47.7295 75.3559C49.8598 77.4807 53.2048 79.5693 57.2718 81.0513C61.3388 82.5333 65.2434 83.0863 68.2412 82.8302C71.3529 82.5644 73.0008 81.4978 73.4449 80.2791ZM62.4161 66.9339C66.7457 68.5115 70.4266 70.7731 72.8679 73.2081C75.2284 75.5625 76.7703 78.4553 75.7938 81.135C75.7267 81.3192 75.6499 81.4964 75.5638 81.667L75.5957 81.6786L73.6148 87.1147C72.6004 89.8984 69.5712 91.2912 66.1711 91.6812C62.6879 92.0807 58.38 91.5047 54.0389 89.9229C49.6979 88.341 46.0293 86.0104 43.6198 83.4636C41.2677 80.9775 39.8447 77.9624 40.8591 75.1787L42.84 69.7426L42.872 69.7542C42.9159 69.5683 42.9711 69.3832 43.0382 69.199C44.0146 66.5193 47.0562 65.2967 50.378 65.0129C53.8136 64.7194 58.0865 65.3562 62.4161 66.9339ZM43.805 74.3964C44.3641 75.3529 45.1106 76.2746 45.964 77.1259C48.4054 79.561 52.0863 81.8225 56.4159 83.4002C60.7454 84.9779 65.0184 85.6147 68.454 85.3211C69.655 85.2185 70.8194 84.9932 71.8628 84.6207L71.2658 86.2588C70.7504 87.6734 68.9911 88.8413 65.8862 89.1975C62.8643 89.5441 58.9504 89.0518 54.8949 87.574C50.8394 86.0961 47.5263 83.955 45.4358 81.7455C43.2879 79.4752 42.6925 77.4493 43.208 76.0347L43.805 74.3964Z" fill="#00F3FF"/>
</g>
<defs>
<clipPath id="clip0_1519_166348">
<rect width="96" height="96" fill="white" transform="matrix(-1 0 0 1 96 0)"/>
</clipPath>
</defs>
</svg>
