<svg width="96" height="96" viewBox="0 0 96 96" fill="none" xmlns="http://www.w3.org/2000/svg">
<path d="M62.2357 17.9125L63.9882 31.1136C64.2273 32.9251 65.737 35.148 67.3591 36.0036L76.9631 41.2277C83.1177 44.5586 82.9887 49.8015 76.7051 52.886L66.0178 58.0949C64.2317 58.9698 62.5625 61.3193 62.3658 63.3034L61.2393 73.9207C60.3421 82.3003 55.1836 83.8996 49.7329 77.4772L42.1189 68.5047C40.7336 66.867 37.8884 65.9127 35.8202 66.3328L24.3085 68.6819C16.0702 70.3573 12.9816 65.922 17.4418 58.7789L23.108 49.7474C24.1667 48.059 24.336 45.1908 23.4611 43.4046L18.2523 32.7172C15.2025 26.4284 18.3314 22.2232 25.2227 23.3815L35.9801 25.1973C37.8011 25.4898 40.3482 24.7128 41.6438 23.4148L51.173 14.082C56.3071 9.03975 61.2952 10.7709 62.2357 17.9125Z" stroke="#00F3FF" stroke-width="3.5" stroke-linecap="round" stroke-linejoin="round"/>
<path d="M87.6902 77.5142L75.5703 68.5852" stroke="#00F3FF" stroke-width="3.5" stroke-linecap="round" stroke-linejoin="round"/>
</svg>
