<svg width="20" height="20" viewBox="0 0 20 20" fill="none" xmlns="http://www.w3.org/2000/svg">
<path fill-rule="evenodd" clip-rule="evenodd" d="M10.0019 16.5897H5.75853C3.32872 16.5897 2.31338 14.8531 3.48977 12.7314L5.6745 8.79613L7.73319 5.0989C8.9796 2.85115 11.0243 2.85115 12.2707 5.0989L14.3294 8.80313L16.5141 12.7384C17.6905 14.8601 16.6682 16.5967 14.2454 16.5967H10.0019V16.5897ZM10.0025 7.3119C10.3273 7.3119 10.5907 7.57524 10.5907 7.90009V11.4013C10.5907 11.7261 10.3273 11.9895 10.0025 11.9895C9.67762 11.9895 9.41428 11.7261 9.41428 11.4013V7.90009C9.41428 7.57524 9.67762 7.3119 10.0025 7.3119ZM9.99837 12.9132C9.67352 12.9132 9.41017 13.1766 9.41017 13.5014C9.41017 13.8263 9.67352 14.0896 9.99837 14.0896H10.0047C10.3295 14.0896 10.5929 13.8263 10.5929 13.5014C10.5929 13.1766 10.3295 12.9132 10.0047 12.9132H9.99837Z" fill="currentColor"/>
</svg>
