<svg width="20" height="20" viewBox="0 0 20 20" fill="none" xmlns="http://www.w3.org/2000/svg">
<path d="M15.6472 16.7048H12.3407C12.0018 16.7048 11.7207 16.4237 11.7207 16.0848C11.7207 15.7459 12.0018 15.4648 12.3407 15.4648H15.6472C15.9861 15.4648 16.2671 15.7459 16.2671 16.0848C16.2671 16.4237 15.9861 16.7048 15.6472 16.7048Z" fill="currentColor"/>
<path d="M13.994 18.3599C13.6551 18.3599 13.374 18.0789 13.374 17.74V14.4334C13.374 14.0945 13.6551 13.8135 13.994 13.8135C14.3329 13.8135 14.614 14.0945 14.614 14.4334V17.74C14.614 18.0789 14.3329 18.3599 13.994 18.3599Z" fill="currentColor"/>
<path d="M10.406 9.57212C10.3812 9.57212 10.3646 9.57212 10.3398 9.57212C10.2985 9.56385 10.2406 9.56385 10.191 9.57212C7.79382 9.49772 5.98351 7.61301 5.98351 5.29019C5.97524 4.14945 6.42162 3.07483 7.23172 2.26474C8.04181 1.45464 9.11643 1 10.2654 1C12.6296 1 14.5556 2.92604 14.5556 5.29019C14.5556 7.61301 12.7453 9.48946 10.4308 9.57212C10.4225 9.57212 10.4142 9.57212 10.406 9.57212ZM10.2654 2.23994C9.44708 2.23994 8.68658 2.56232 8.10794 3.1327C7.53757 3.71134 7.22345 4.47183 7.22345 5.28193C7.22345 6.93518 8.51299 8.27431 10.158 8.32391C10.2076 8.31565 10.315 8.31565 10.4225 8.32391C12.051 8.24952 13.3157 6.91865 13.3157 5.28193C13.3157 3.61214 11.9435 2.23994 10.2654 2.23994Z" fill="currentColor"/>
<path d="M10.2658 18.6149C8.57951 18.6149 6.98412 18.1768 5.77725 17.3667C4.62824 16.598 4 15.5482 4 14.4157C4 13.2832 4.6365 12.2416 5.77725 11.4812C8.24886 9.8279 12.2663 9.8279 14.7379 11.4812C15.0189 11.6713 15.1016 12.0598 14.9115 12.3408C14.7214 12.6302 14.3328 12.7046 14.0518 12.5144C11.9935 11.1422 8.52165 11.1422 6.46335 12.5144C5.66979 13.0435 5.23994 13.713 5.23994 14.4157C5.23994 15.1183 5.66979 15.8044 6.46335 16.3334C7.46357 17.003 8.81097 17.3667 10.2576 17.3667C10.5965 17.3667 10.8775 17.6478 10.8775 17.9867C10.8775 18.3256 10.6047 18.6149 10.2658 18.6149Z" fill="currentColor"/>
</svg>
