<svg width="20" height="20" viewBox="0 0 20 20" fill="none" xmlns="http://www.w3.org/2000/svg">
<path d="M6 18L1.75818 15.2306C1.30327 14.9499 1 14.2948 1 13.6396V6.52697C1 5.87186 1.30327 5.21675 1.75818 4.84239L6 2" stroke="currentColor" stroke-width="1.32732" stroke-miterlimit="10" stroke-linecap="round" stroke-linejoin="round"/>
<path d="M5.42432 6.95449V13.2429C5.42432 13.8221 5.7407 14.4013 6.21527 14.6495L11.7519 17.8764C12.2265 18.1247 12.7802 18.1247 13.2548 17.8764L18.7914 14.6495C19.266 14.3185 19.5824 13.8221 19.5824 13.2429V6.95449C19.5824 6.37529 19.266 5.7961 18.7914 5.54787L13.2548 2.32094C12.7802 2.07271 12.2265 2.07271 11.7519 2.32094L6.21527 5.46513C5.7407 5.7961 5.42432 6.37529 5.42432 6.95449Z" fill="var(--fillColor, currentColor)" stroke="currentColor" stroke-width="1.32732" stroke-miterlimit="10" stroke-linecap="round" stroke-linejoin="round"/>
</svg>
