<svg width="20" height="20" viewBox="0 0 20 20" fill="none" xmlns="http://www.w3.org/2000/svg">
<path d="M4.2667 9.87C4.28337 9.14167 4.43337 8.435 4.71503 7.77C5.00336 7.08667 5.41669 6.475 5.94336 5.94667C6.47002 5.41833 7.08335 5.005 7.76668 4.71667C8.47334 4.41833 9.22334 4.26667 9.99833 4.26667C10.7733 4.26667 11.5233 4.41833 12.2283 4.71667C12.9097 5.00441 13.5284 5.4222 14.05 5.94667C14.215 6.11167 14.37 6.28667 14.5133 6.47L13.51 7.25333C13.4901 7.26869 13.475 7.28934 13.4664 7.3129C13.4577 7.33647 13.4559 7.36199 13.4611 7.38654C13.4664 7.41109 13.4784 7.43367 13.4959 7.45167C13.5134 7.46968 13.5356 7.48239 13.56 7.48833L16.4883 8.205C16.5716 8.225 16.6533 8.16167 16.6533 8.07667L16.6666 5.06167C16.6666 4.95 16.5383 4.88667 16.4516 4.95667L15.5116 5.69167C14.23 4.05167 12.2367 3 9.99667 3C6.17836 3 3.07171 6.06 3.00004 9.86333C2.9996 9.88112 3.00272 9.89882 3.00922 9.91538C3.01572 9.93195 3.02547 9.94704 3.0379 9.95978C3.05032 9.97251 3.06517 9.98263 3.08157 9.98954C3.09797 9.99645 3.11558 10 3.13337 10H4.13337C4.2067 10 4.26503 9.94167 4.2667 9.87ZM16.8666 10H15.8666C15.7933 10 15.735 10.0583 15.7333 10.13C15.7166 10.8583 15.5666 11.565 15.285 12.23C14.9966 12.9133 14.5833 13.5267 14.0566 14.0533C13.5251 14.5871 12.8931 15.0104 12.1971 15.2987C11.5011 15.5871 10.755 15.7348 10.0017 15.7333C9.24859 15.7347 8.5027 15.587 7.80701 15.2987C7.11133 15.0103 6.47963 14.5871 5.94836 14.0533C5.78336 13.8883 5.62836 13.7133 5.48503 13.53L6.48835 12.7467C6.50821 12.7313 6.52332 12.7107 6.53196 12.6871C6.5406 12.6635 6.54241 12.638 6.53719 12.6135C6.53196 12.5889 6.51992 12.5663 6.50243 12.5483C6.48495 12.5303 6.46274 12.5176 6.43835 12.5117L3.51004 11.795C3.42671 11.775 3.34504 11.8383 3.34504 11.9233L3.33337 14.94C3.33337 15.0517 3.46171 15.115 3.54837 15.045L4.48837 14.31C5.77003 15.9483 7.76335 17 10.0033 17C13.8233 17 16.9283 13.9383 17 10.1367C17.0004 10.1189 16.9973 10.1012 16.9908 10.0846C16.9843 10.0681 16.9745 10.053 16.9621 10.0402C16.9497 10.0275 16.9348 10.0174 16.9184 10.0105C16.902 10.0036 16.8844 9.99999 16.8666 10Z" fill="currentColor"/>
</svg>
