<svg width="100%" height="100%" viewBox="0 0 20 20" fill="none" xmlns="http://www.w3.org/2000/svg">
  <path
    d="M12.2728 0.872489L12.2728 19.7823C12.2728 19.9019 12.3751 19.9997 12.5001 19.9997H14.2046C14.3296 19.9997 14.4319 19.9019 14.4319 19.7823L14.4319 3.3371L19.6307 7.25819C19.7785 7.3696 20.0001 7.26906 20.0001 7.087V5.11694C20.0001 4.98379 19.9376 4.8588 19.8268 4.77456L13.7444 0.187726C13.1478 -0.260632 12.2728 0.144248 12.2728 0.872489V0.872489ZM5.56824 0.217616L5.56824 16.6628L0.369379 12.7417C0.221652 12.6303 6.10352e-05 12.7309 6.10352e-05 12.9129L6.10352e-05 14.883C6.10352e-05 15.0161 0.0625612 15.1411 0.173357 15.2254L6.25574 19.8122C6.85233 20.2606 7.72733 19.8557 7.72733 19.1302L7.72733 0.217616C7.72733 0.0980537 7.62506 0.000230209 7.50006 0.000230209H5.79552C5.67052 0.000230209 5.56824 0.0980537 5.56824 0.217616Z"
    fill="currentColor" />
</svg>