<svg width="20" height="20" viewBox="0 0 20 20" fill="none" xmlns="http://www.w3.org/2000/svg">
<g clip-path="url(#clip0_2857_260786)">
<path d="M9.99935 19.0077C9.42435 19.0077 8.88268 18.716 8.49935 18.2077L7.24935 16.541C7.22435 16.5077 7.12435 16.4577 7.07435 16.4577H6.66601C3.19102 16.4577 1.04102 15.516 1.04102 10.8327V6.66602C1.04102 2.98268 2.98268 1.04102 6.66601 1.04102H11.666C12.0077 1.04102 12.291 1.32435 12.291 1.66602C12.291 2.00768 12.0077 2.29102 11.666 2.29102H6.66601C3.68268 2.29102 2.29102 3.68268 2.29102 6.66602V10.8327C2.29102 14.5994 3.58268 15.2077 6.66601 15.2077H7.08268C7.50768 15.2077 7.99101 15.4494 8.24935 15.791L9.49935 17.4577C9.79101 17.841 10.2077 17.841 10.4993 17.4577L11.7493 15.791C12.0243 15.4244 12.4577 15.2077 12.916 15.2077H13.3327C16.316 15.2077 17.7077 13.816 17.7077 10.8327V8.33268C17.7077 7.99102 17.991 7.70768 18.3327 7.70768C18.6743 7.70768 18.9577 7.99102 18.9577 8.33268V10.8327C18.9577 14.516 17.016 16.4577 13.3327 16.4577H12.916C12.8493 16.4577 12.791 16.491 12.7493 16.541L11.4993 18.2077C11.116 18.716 10.5743 19.0077 9.99935 19.0077Z" fill="currentColor"/>
<path d="M9.99935 10.0007C9.53268 10.0007 9.16602 9.62565 9.16602 9.16732C9.16602 8.70898 9.54102 8.33398 9.99935 8.33398C10.4577 8.33398 10.8327 8.70898 10.8327 9.16732C10.8327 9.62565 10.466 10.0007 9.99935 10.0007Z" fill="currentColor"/>
<path d="M13.3333 10.0007C12.8667 10.0007 12.5 9.62565 12.5 9.16732C12.5 8.70898 12.875 8.33398 13.3333 8.33398C13.7917 8.33398 14.1667 8.70898 14.1667 9.16732C14.1667 9.62565 13.8 10.0007 13.3333 10.0007Z" fill="currentColor"/>
<path d="M6.66732 10.0007C6.20065 10.0007 5.83398 9.62565 5.83398 9.16732C5.83398 8.70898 6.20898 8.33398 6.66732 8.33398C7.12565 8.33398 7.50065 8.70898 7.50065 9.16732C7.50065 9.62565 7.13398 10.0007 6.66732 10.0007Z" fill="currentColor"/>
<path d="M16.2493 6.45768C14.7577 6.45768 13.541 5.24101 13.541 3.74935C13.541 2.25768 14.7577 1.04102 16.2493 1.04102C17.741 1.04102 18.9577 2.25768 18.9577 3.74935C18.9577 5.24101 17.741 6.45768 16.2493 6.45768ZM16.2493 2.29102C15.4493 2.29102 14.791 2.94935 14.791 3.74935C14.791 4.54935 15.4493 5.20768 16.2493 5.20768C17.0493 5.20768 17.7077 4.54935 17.7077 3.74935C17.7077 2.94935 17.0493 2.29102 16.2493 2.29102Z" fill="currentColor"/>
</g>
<defs>
<clipPath id="clip0_2857_260786">
<rect width="20" height="20" fill="white"/>
</clipPath>
</defs>
</svg>
