<svg width="14" height="14" viewBox="0 0 14 14" fill="none" xmlns="http://www.w3.org/2000/svg">
<g clip-path="url(#clip0_3910_59410)">
<path d="M6.10801 0.883774C6.5505 0.505417 7.27515 0.505417 7.72405 0.883774L8.73727 1.75592C8.92966 1.92265 9.28878 2.05732 9.54529 2.05732H10.6355C11.3152 2.05732 11.8731 2.61524 11.8731 3.295V4.38517C11.8731 4.63527 12.0078 5.00081 12.1745 5.19319L13.0467 6.20642C13.425 6.6489 13.425 7.37355 13.0467 7.82245L12.1745 8.83567C12.0078 9.02806 11.8731 9.38718 11.8731 9.64369V10.7339C11.8731 11.4136 11.3152 11.9715 10.6355 11.9715H9.54529C9.29519 11.9715 8.92966 12.1062 8.73727 12.2729L7.72405 13.1451C7.28156 13.5234 6.55691 13.5234 6.10801 13.1451L5.09479 12.2729C4.9024 12.1062 4.54329 11.9715 4.28677 11.9715H3.17735C2.49759 11.9715 1.93968 11.4136 1.93968 10.7339V9.63728C1.93968 9.38718 1.80501 9.02806 1.64469 8.83567L0.778958 7.81604C0.407014 7.37355 0.407014 6.65531 0.778958 6.21283L1.64469 5.19319C1.80501 5.00081 1.93968 4.64169 1.93968 4.39159V3.28858C1.93968 2.60882 2.49759 2.05091 3.17735 2.05091H4.28677C4.53687 2.05091 4.9024 1.91624 5.09479 1.7495L6.10801 0.883774Z" fill="#00F3FF"/>
<path d="M4.84009 7.0519L6.38558 8.60381L9.48297 5.5" stroke="#0E435C" stroke-width="0.961923" stroke-linecap="round" stroke-linejoin="round"/>
</g>
<defs>
<clipPath id="clip0_3910_59410">
<rect width="14" height="14" fill="white"/>
</clipPath>
</defs>
</svg>
