<svg width="20" height="20" viewBox="0 0 20 20" fill="none" xmlns="http://www.w3.org/2000/svg">
<g clip-path="url(#clip0_2857_261002)">
<path d="M9.22478 15.1414C9.08311 15.1414 8.94978 15.1164 8.80811 15.0664C8.34978 14.8914 8.04978 14.4664 8.04978 13.9747V11.2247H7.23311C6.76645 11.2247 6.35811 10.958 6.16645 10.5414C5.97478 10.1164 6.04978 9.64136 6.35811 9.29136L9.90811 5.25802C10.2331 4.89136 10.7331 4.76636 11.1914 4.94136C11.6498 5.11636 11.9498 5.54136 11.9498 6.03302V8.78302H12.7748C13.2414 8.78302 13.6498 9.04969 13.8414 9.46636C14.0331 9.89136 13.9581 10.3664 13.6498 10.7164L10.0998 14.7497C9.86645 14.9997 9.54978 15.1414 9.22478 15.1414ZM7.41645 9.97469H8.67478C9.01645 9.97469 9.29978 10.258 9.29978 10.5997V13.7497L12.5831 10.0247H11.3248C10.9831 10.0247 10.6998 9.74136 10.6998 9.39969V6.24969L7.41645 9.97469Z" fill="currentColor"/>
<path d="M9.97493 18.9577C5.0416 18.9577 1.0166 14.941 1.0166 9.99935C1.0166 5.05768 5.0416 1.04102 9.97493 1.04102C14.9083 1.04102 18.9333 5.05768 18.9333 9.99935C18.9333 14.941 14.9166 18.9577 9.97493 18.9577ZM9.97493 2.29102C5.72494 2.29102 2.2666 5.74935 2.2666 9.99935C2.2666 14.2493 5.72494 17.7077 9.97493 17.7077C14.2249 17.7077 17.6833 14.2493 17.6833 9.99935C17.6833 5.74935 14.2249 2.29102 9.97493 2.29102Z" fill="currentColor"/>
</g>
<defs>
<clipPath id="clip0_2857_261002">
<rect width="20" height="20" fill="white"/>
</clipPath>
</defs>
</svg>
