<svg width="50" height="50" viewBox="0 0 50 50" fill="none" xmlns="http://www.w3.org/2000/svg">
<path fill-rule="evenodd" clip-rule="evenodd" d="M11.8236 16.6752C11.335 16.3866 10.9451 15.5431 11.1021 13.9607C11.2518 12.4512 11.8885 10.5544 13.0099 8.65616C14.1312 6.75793 15.4852 5.28482 16.735 4.42509C18.045 3.52391 18.972 3.45828 19.4606 3.74693C19.9492 4.03557 20.3391 4.87907 20.1821 6.46138C20.0323 7.9709 19.3956 9.86773 18.2743 11.766C17.153 13.6642 15.799 15.1373 14.5492 15.997C13.2391 16.8982 12.3122 16.9638 11.8236 16.6752ZM11.6323 7.84238C10.42 9.89461 9.68743 12.0134 9.50988 13.8028C9.33956 15.5193 9.66429 17.258 11.0098 18.0528C11.0962 18.1038 11.184 18.1493 11.273 18.1895L11.2652 18.2028L13.8228 19.7136C15.2119 20.5341 16.9386 20.0593 18.4303 19.0956C19.967 18.1029 21.5041 16.4504 22.7203 14.3914C23.9366 12.3325 24.642 10.1887 24.7699 8.36377C24.8939 6.59217 24.4764 4.85069 23.0873 4.03014L20.5297 2.5193L20.5211 2.5339C20.443 2.47532 20.3608 2.42038 20.2744 2.36933C18.9288 1.57451 17.2494 2.12922 15.8282 3.10687C14.3467 4.12597 12.8446 5.79016 11.6323 7.84238ZM21.7821 5.1174C21.8317 5.60338 21.8246 6.11233 21.7743 6.61936C21.5967 8.40871 20.8642 10.5275 19.6519 12.5797C18.4396 14.632 16.9375 16.2962 15.456 17.3153C15.0367 17.6036 14.595 17.8552 14.146 18.0462L14.6366 18.336C15.2227 18.6823 16.2301 18.6122 17.5621 17.7517C18.8492 16.9202 20.2254 15.4692 21.3427 13.5777C22.4601 11.6862 23.0667 9.78052 23.1738 8.25199C23.2846 6.67009 22.8597 5.75399 22.2736 5.40773L21.7821 5.1174Z" fill="currentColor"/>
<path fill-rule="evenodd" clip-rule="evenodd" d="M25.0663 18.5923C25.2933 18.0722 26.0831 17.5826 27.6728 17.5459C29.1893 17.5109 31.1495 17.9121 33.1701 18.7942C35.1906 19.6762 36.8175 20.8409 37.8229 21.9768C38.8768 23.1675 39.0547 24.0795 38.8277 24.5997C38.6006 25.1198 37.8108 25.6094 36.2212 25.6461C34.7046 25.6811 32.7444 25.2799 30.7239 24.3978C28.7033 23.5158 27.0764 22.3511 26.071 21.2152C25.0171 20.0245 24.8392 19.1124 25.0663 18.5923ZM33.8102 17.3278C31.6257 16.3742 29.4335 15.9049 27.6359 15.9463C25.9113 15.9861 24.2251 16.52 23.5999 17.9522C23.5595 18.0448 23.5248 18.1381 23.4957 18.232L23.4811 18.2257L22.2926 20.9481C21.6472 22.4267 22.3286 24.0828 23.4666 25.4462C24.6389 26.8507 26.4661 28.1753 28.6578 29.132C30.8494 30.0888 33.0631 30.5281 34.89 30.433C36.6636 30.3406 38.3413 29.7143 38.9868 28.2357L40.1752 25.5133L40.1597 25.5065C40.2087 25.4213 40.2536 25.3324 40.294 25.2398C40.9193 23.8076 40.1643 22.2081 39.021 20.9164C37.8293 19.5699 35.9947 18.2814 33.8102 17.3278ZM37.7495 27.0707C37.2733 27.1791 36.7673 27.2339 36.2581 27.2456C34.4604 27.2871 32.2682 26.8178 30.0838 25.8642C27.8993 24.9106 26.0647 23.6221 24.8729 22.2756C24.5356 21.8945 24.2321 21.4866 23.9878 21.0641L23.759 21.5882C23.4866 22.2122 23.6787 23.2035 24.6949 24.4209C25.6768 25.5973 27.2845 26.7867 29.2979 27.6657C31.3113 28.5446 33.2766 28.9148 34.8068 28.8351C36.3904 28.7526 37.248 28.2195 37.5204 27.5956L37.7495 27.0707Z" fill="currentColor"/>
<path fill-rule="evenodd" clip-rule="evenodd" d="M13.8472 41.7929C13.6213 41.2723 13.8011 40.3606 14.8576 39.1722C15.8654 38.0384 17.4948 36.8772 19.5172 35.9995C21.5397 35.1218 23.5007 34.7248 25.0172 34.7631C26.6068 34.8032 27.3955 35.2945 27.6214 35.8151C27.8474 36.3357 27.6675 37.2473 26.6111 38.4357C25.6032 39.5695 23.9738 40.7307 21.9514 41.6084C19.929 42.4861 17.9679 42.8831 16.4514 42.8449C14.8619 42.8048 14.0731 42.3135 13.8472 41.7929ZM18.8803 34.5318C16.6937 35.4807 14.8564 36.7653 13.6617 38.1092C12.5157 39.3984 11.7573 40.9963 12.3795 42.4298C12.4195 42.5221 12.4639 42.6106 12.5125 42.6955L12.4977 42.702L13.6803 45.4269C14.3225 46.9069 15.999 47.5368 17.7723 47.633C19.599 47.7321 21.8136 47.2974 24.0073 46.3454C26.201 45.3934 28.0311 44.0727 29.2064 42.6708C30.3473 41.3098 31.0323 39.6551 30.39 38.1752L29.2074 35.4502L29.1924 35.4567C29.1635 35.3632 29.1292 35.2703 29.0892 35.1781C28.467 33.7445 26.782 33.2071 25.0575 33.1636C23.26 33.1182 21.0668 33.5829 18.8803 34.5318ZM28.695 38.2885C28.4498 38.7107 28.1452 39.1182 27.8069 39.4988C26.6122 40.8427 24.7749 42.1272 22.5884 43.0762C20.4019 44.0251 18.2087 44.4897 16.4111 44.4444C15.9021 44.4315 15.3966 44.3757 14.9208 44.2664L15.148 44.79C15.419 45.4145 16.2755 45.9494 17.8589 46.0353C19.389 46.1183 21.3551 45.7523 23.3703 44.8777C25.3856 44.0031 26.9959 42.8171 27.9803 41.6428C28.999 40.4276 29.1933 39.4367 28.9223 38.8121L28.695 38.2885Z" fill="currentColor"/>
</svg>
