<svg width="20" height="20" viewBox="0 0 20 20" fill="none" xmlns="http://www.w3.org/2000/svg">
<path d="M16.5159 4.41958C15.3557 3.91209 14.1152 3.54326 12.8182 3.33325C12.6589 3.60248 12.4728 3.9646 12.3445 4.25266C10.9658 4.05882 9.59974 4.05882 8.24638 4.25266C8.1181 3.9646 7.92779 3.60248 7.76708 3.33325C6.4687 3.54326 5.22671 3.91344 4.06649 4.42227C1.72631 7.72832 1.09193 10.9522 1.40912 14.1304C2.96125 15.214 4.46545 15.8723 5.94427 16.303C6.30939 15.8332 6.63504 15.3338 6.91557 14.8075C6.38128 14.6177 5.86955 14.3835 5.38602 14.1116C5.5143 14.0227 5.63978 13.9298 5.761 13.8343C8.71018 15.1238 11.9145 15.1238 14.8285 13.8343C14.9511 13.9298 15.0766 14.0227 15.2035 14.1116C14.7185 14.3848 14.2054 14.619 13.6711 14.8089C13.9516 15.3338 14.2759 15.8346 14.6424 16.3044C16.1226 15.8736 17.6282 15.2154 19.1804 14.1304C19.5525 10.4461 18.5446 7.25179 16.5159 4.41958ZM7.31736 12.1759C6.43204 12.1759 5.70602 11.4032 5.70602 10.4623C5.70602 9.52133 6.41654 8.74732 7.31736 8.74732C8.2182 8.74732 8.9442 9.51998 8.9287 10.4623C8.9301 11.4032 8.2182 12.1759 7.31736 12.1759ZM13.2721 12.1759C12.3868 12.1759 11.6608 11.4032 11.6608 10.4623C11.6608 9.52133 12.3713 8.74732 13.2721 8.74732C14.1729 8.74732 14.899 9.51998 14.8835 10.4623C14.8835 11.4032 14.1729 12.1759 13.2721 12.1759Z" fill="currentColor"/>
</svg>
