<svg width="20" height="20" viewBox="0 0 20 20" fill="none" xmlns="http://www.w3.org/2000/svg">
<g clip-path="url(#clip0_366_22125)">
<path d="M18.4024 9.49544C17.7158 8.04896 16.8987 6.86927 15.9512 5.95638L14.9574 6.95013C15.7678 7.72454 16.4736 8.73763 17.084 9.99935C15.459 13.3626 13.1523 14.9603 10 14.9603C9.05378 14.9603 8.18223 14.8146 7.38535 14.5232L6.30859 15.5999C7.41536 16.111 8.64583 16.3665 10 16.3665C13.7539 16.3665 16.5547 14.4115 18.4024 10.5013C18.4766 10.344 18.5152 10.1723 18.5152 9.99837C18.5152 9.82446 18.4766 9.6527 18.4024 9.49544ZM17.1608 3.23294L16.3281 2.39934C16.3136 2.38481 16.2964 2.37329 16.2774 2.36543C16.2585 2.35756 16.2381 2.35352 16.2176 2.35352C16.1971 2.35352 16.1767 2.35756 16.1578 2.36543C16.1388 2.37329 16.1216 2.38481 16.107 2.39934L13.9709 4.5345C12.7932 3.93294 11.4695 3.63216 10 3.63216C6.24609 3.63216 3.44531 5.58724 1.59765 9.4974C1.52338 9.65466 1.48486 9.82641 1.48486 10.0003C1.48486 10.1742 1.52338 10.346 1.59765 10.5033C2.3358 12.0579 3.22447 13.3041 4.26367 14.2417L2.19687 16.308C2.16759 16.3372 2.15114 16.377 2.15114 16.4184C2.15114 16.4598 2.16759 16.4995 2.19687 16.5288L3.03066 17.3626C3.05996 17.3919 3.09968 17.4084 3.14111 17.4084C3.18253 17.4084 3.22226 17.3919 3.25156 17.3626L17.1608 3.45403C17.1753 3.43952 17.1868 3.42229 17.1947 3.40332C17.2025 3.38435 17.2066 3.36402 17.2066 3.34348C17.2066 3.32295 17.2025 3.30262 17.1947 3.28365C17.1868 3.26468 17.1753 3.24745 17.1608 3.23294ZM2.91601 9.99935C4.54296 6.63607 6.84961 5.03841 10 5.03841C11.0652 5.03841 12.0338 5.22122 12.9125 5.5929L11.5395 6.96595C10.8892 6.619 10.1446 6.49024 9.41564 6.59865C8.68663 6.70707 8.01176 7.04692 7.49061 7.56808C6.96945 8.08924 6.6296 8.7641 6.52118 9.49311C6.41276 10.2221 6.54153 10.9667 6.88847 11.6169L5.25918 13.2462C4.35742 12.4503 3.58007 11.372 2.91601 9.99935ZM7.73437 9.99935C7.73472 9.65494 7.81629 9.31548 7.97248 9.00852C8.12867 8.70157 8.35506 8.43579 8.63326 8.23276C8.91147 8.02974 9.23364 7.89521 9.57361 7.84009C9.91358 7.78498 10.2617 7.81083 10.5898 7.91556L7.83809 10.6673C7.76911 10.4514 7.73413 10.226 7.73437 9.99935Z" fill="#C4C4C4"/>
<path d="M9.92177 12.1869C9.8542 12.1869 9.78759 12.1838 9.72158 12.1777L8.68994 13.2094C9.31043 13.447 9.98646 13.4998 10.6363 13.3614C11.2862 13.223 11.882 12.8993 12.3519 12.4295C12.8217 11.9597 13.1454 11.3638 13.2838 10.714C13.4222 10.0641 13.3693 9.38806 13.1317 8.76758L12.1001 9.79922C12.1061 9.86523 12.1093 9.93183 12.1093 9.99941C12.1094 10.2867 12.0529 10.5712 11.9431 10.8367C11.8332 11.1022 11.6721 11.3434 11.4689 11.5465C11.2658 11.7497 11.0245 11.9108 10.7591 12.0207C10.4936 12.1306 10.2091 12.1871 9.92177 12.1869Z" fill="#C4C4C4"/>
</g>
<defs>
<clipPath id="clip0_366_22125">
<rect width="20" height="20" fill="white"/>
</clipPath>
</defs>
</svg>
