<svg width="50" height="50" viewBox="0 0 50 50" fill="none" xmlns="http://www.w3.org/2000/svg">
<path d="M33.8162 11.8996L33.6995 18.2162C33.6828 19.0829 34.2329 20.2329 34.9329 20.7496L39.0662 23.8829C41.7162 25.8829 41.2829 28.3329 38.1162 29.3329L32.7329 31.0162C31.8329 31.2995 30.8829 32.2829 30.6496 33.1996L29.3662 38.0995C28.3495 41.9662 25.8162 42.3495 23.7162 38.9495L20.7828 34.1995C20.2495 33.3329 18.9828 32.6829 17.9828 32.7329L12.4162 33.0162C8.4329 33.2162 7.29955 30.9162 9.89955 27.8829L13.1995 24.0495C13.8162 23.3329 14.0995 21.9996 13.8162 21.0996L12.1329 15.7162C11.1496 12.5495 12.9162 10.7996 16.0662 11.8329L20.9829 13.4496C21.8163 13.7162 23.0662 13.5329 23.7662 13.0162L28.8996 9.31621C31.6663 7.31621 33.8828 8.48291 33.8162 11.8996Z" stroke="currentColor" stroke-width="2" stroke-linecap="round" stroke-linejoin="round"/>
<path d="M41.5175 41.6658L36.4675 36.6158" stroke="currentColor" stroke-width="2" stroke-linecap="round" stroke-linejoin="round"/>
</svg>
