<svg width="20" height="20" viewBox="0 0 20 20" fill="none" xmlns="http://www.w3.org/2000/svg">
<path d="M10.0503 13.9375C9.70863 13.9375 9.42529 13.6825 9.42529 13.375V9.625C9.42529 9.3175 9.70863 9.0625 10.0503 9.0625C10.392 9.0625 10.6753 9.3175 10.6753 9.625V13.375C10.6753 13.6825 10.392 13.9375 10.0503 13.9375Z" fill="currentColor"/>
<path d="M12.0827 12.0625H7.91602C7.57435 12.0625 7.29102 11.8075 7.29102 11.5C7.29102 11.1925 7.57435 10.9375 7.91602 10.9375H12.0827C12.4243 10.9375 12.7077 11.1925 12.7077 11.5C12.7077 11.8075 12.4243 12.0625 12.0827 12.0625Z" fill="currentColor"/>
<path d="M14.166 18.0625H5.83268C2.15768 18.0625 1.04102 17.0575 1.04102 13.75V6.25C1.04102 2.9425 2.15768 1.9375 5.83268 1.9375H7.08268C8.54101 1.9375 8.99935 2.365 9.58268 3.0625L10.8327 4.5625C11.1077 4.8925 11.1493 4.9375 11.666 4.9375H14.166C17.841 4.9375 18.9577 5.9425 18.9577 9.25V13.75C18.9577 17.0575 17.841 18.0625 14.166 18.0625ZM5.83268 3.0625C2.85768 3.0625 2.29102 3.5725 2.29102 6.25V13.75C2.29102 16.4275 2.85768 16.9375 5.83268 16.9375H14.166C17.141 16.9375 17.7077 16.4275 17.7077 13.75V9.25C17.7077 6.5725 17.141 6.0625 14.166 6.0625H11.666C10.5993 6.0625 10.2493 5.7325 9.83268 5.2375L8.58268 3.7375C8.14935 3.22 8.02435 3.0625 7.08268 3.0625H5.83268Z" fill="currentColor"/>
</svg>
