<svg width="24" height="24" viewBox="0 0 24 24" fill="none" xmlns="http://www.w3.org/2000/svg">
<path d="M9.11971 10.0802C8.05932 10.0802 7.19971 9.22062 7.19971 8.16023C7.19971 7.09985 8.05932 6.24023 9.11971 6.24023C10.1801 6.24023 11.0397 7.09985 11.0397 8.16023C11.0397 9.22062 10.1801 10.0802 9.11971 10.0802Z" stroke="white" stroke-width="1.2" stroke-linecap="round" stroke-linejoin="round"/>
<path d="M12.9599 2.3999H9.1199C4.3199 2.3999 2.3999 4.3199 2.3999 9.1199V14.8799C2.3999 19.6799 4.3199 21.5999 9.1199 21.5999H14.8799C19.6799 21.5999 21.5999 19.6799 21.5999 14.8799V10.0799" stroke="white" stroke-width="1.2" stroke-linecap="round" stroke-linejoin="round"/>
<path d="M15.6001 5.28014H20.8801M18.2401 7.92014V2.64014" stroke="white" stroke-width="1.2" stroke-linecap="round"/>
<path d="M3.04346 18.672L7.77626 15.4944C8.53466 14.9856 9.62906 15.0432 10.3106 15.6288L10.6274 15.9072C11.3762 16.5504 12.5858 16.5504 13.3346 15.9072L17.3282 12.48C18.077 11.8368 19.2866 11.8368 20.0354 12.48L21.6002 13.824" stroke="white" stroke-width="1.2" stroke-linecap="round" stroke-linejoin="round"/>
</svg>
