<svg width="20" height="20" viewBox="0 0 20 20" fill="none" xmlns="http://www.w3.org/2000/svg">
<path fill-rule="evenodd" clip-rule="evenodd" d="M10 17C13.866 17 17 13.866 17 10C17 6.13401 13.866 3 10 3C6.13401 3 3 6.13401 3 10C3 13.866 6.13401 17 10 17ZM9.57297 8.04049C9.43871 7.90623 9.36328 7.72414 9.36328 7.53427C9.36328 7.3444 9.43871 7.1623 9.57297 7.02804C9.70723 6.89379 9.88932 6.81836 10.0792 6.81836C10.2691 6.81836 10.4512 6.89379 10.5854 7.02804C10.7197 7.1623 10.7951 7.3444 10.7951 7.53427C10.7951 7.72414 10.7197 7.90623 10.5854 8.04049C10.4512 8.17475 10.2691 8.25018 10.0792 8.25018C9.88932 8.25018 9.70723 8.17475 9.57297 8.04049ZM9.60192 9.32404C9.60192 9.25842 9.65561 9.20472 9.72124 9.20472H10.4371C10.5028 9.20472 10.5565 9.25842 10.5565 9.32404V13.3809C10.5565 13.4465 10.5028 13.5002 10.4371 13.5002H9.72124C9.65561 13.5002 9.60192 13.4465 9.60192 13.3809V9.32404Z" fill="currentColor"/>
</svg>
