<svg width="124" height="20" viewBox="0 0 124 20" fill="none" xmlns="http://www.w3.org/2000/svg">
<circle cx="7" cy="10" r="4" fill="#00F3FF"/>
<path d="M22.544 8.296H33.808V11.336H22.544V8.296ZM33.36 4.76H37.36V15H33.36V4.76ZM19.12 4.76H23.12V15H19.12V4.76ZM53.9884 9.16V4.76H57.9884V9.88C57.9884 10.7867 57.8177 11.56 57.4764 12.2C57.1457 12.8293 56.6817 13.352 56.0844 13.768C55.487 14.1733 54.799 14.488 54.0204 14.712C53.2417 14.936 52.4044 15.0907 51.5084 15.176C50.623 15.272 49.7217 15.32 48.8044 15.32C47.8337 15.32 46.895 15.272 45.9884 15.176C45.0817 15.0907 44.239 14.936 43.4604 14.712C42.6924 14.488 42.0204 14.1733 41.4444 13.768C40.8684 13.352 40.415 12.8293 40.0844 12.2C39.7644 11.56 39.6044 10.7867 39.6044 9.88V4.76H43.6044V9.16C43.6044 10.0133 43.8124 10.664 44.2284 11.112C44.6444 11.56 45.2364 11.8693 46.0044 12.04C46.783 12.2 47.7164 12.28 48.8044 12.28C49.8604 12.28 50.7777 12.2 51.5564 12.04C52.335 11.8693 52.9324 11.56 53.3484 11.112C53.775 10.664 53.9884 10.0133 53.9884 9.16ZM72.9334 13.784H70.5334L79.2694 4.76H83.2694V15H79.2694V8.024L80.4694 8.52L74.1494 15H69.3494L63.0134 8.536L64.2294 8.04V15H60.2294V4.76H64.2294L72.9334 13.784ZM88.1346 13.448V11.048H99.0786V13.448H88.1346ZM84.5506 15L91.4146 4.76H95.8626L102.791 15H98.3906L92.4546 5.832H94.8386L88.9506 15H84.5506ZM120.121 11.864L118.633 12.712V4.76H122.633V15H118.633L106.585 8.024L108.073 7.16V15H104.073V4.76H108.073L120.121 11.864Z" fill="white"/>
</svg>
