<svg width="100%" height="100%" viewBox="0 0 20 20" fill="none" xmlns="http://www.w3.org/2000/svg">
<path d="M13.9179 7.3822L14.9582 8.60442C15.0772 8.74169 15.1828 8.85461 15.2255 8.91883C15.5366 9.228 15.7111 9.64585 15.7108 10.0813C15.6816 10.595 15.3468 10.9448 15.0368 11.319L14.3089 12.1737L13.9292 12.6165C13.9155 12.6318 13.9068 12.6506 13.9039 12.6708C13.901 12.6909 13.9042 12.7114 13.9131 12.7298C13.9219 12.7482 13.936 12.7636 13.9536 12.7741C13.9713 12.7847 13.9917 12.7899 14.0123 12.7892H17.807C18.3867 12.7892 19.1169 13.2763 19.0742 14.0159C19.073 14.352 18.937 14.674 18.6958 14.9117C18.4546 15.1493 18.1279 15.2834 17.7868 15.2846H11.8442C11.4533 15.2846 10.4018 15.3266 10.1075 14.4299C10.0449 14.2425 10.0363 14.0417 10.0828 13.8498C10.1683 13.566 10.3037 13.2992 10.4827 13.0615C10.7815 12.6187 11.105 12.1759 11.4241 11.7463C11.8352 11.1839 12.2576 10.6392 12.6732 10.0658C12.688 10.0471 12.696 10.0241 12.696 10.0004C12.696 9.97679 12.688 9.9538 12.6732 9.93513L11.1634 8.16379C11.1536 8.15096 11.1409 8.14054 11.1262 8.13337C11.1116 8.1262 11.0955 8.12247 11.0792 8.12247C11.0628 8.12247 11.0467 8.1262 11.0321 8.13337C11.0175 8.14054 11.0048 8.15096 10.9949 8.16379C10.5905 8.70184 8.82009 11.0843 8.44264 11.567C8.06519 12.0497 7.13504 12.0762 6.62054 11.567L4.25923 9.23103C4.24415 9.21611 4.2249 9.20594 4.20396 9.20182C4.183 9.19769 4.16127 9.1998 4.14155 9.20787C4.1218 9.21593 4.10492 9.22959 4.09308 9.24712C4.08124 9.26464 4.07495 9.28524 4.075 9.3063V13.7989C4.08055 14.1177 3.98477 14.4302 3.80103 14.6927C3.61732 14.9551 3.35487 15.1543 3.05049 15.2624C2.85599 15.3291 2.64814 15.3491 2.44423 15.3205C2.24034 15.292 2.04633 15.2158 1.87837 15.0984C1.7104 14.981 1.57335 14.8257 1.47865 14.6455C1.38397 14.4652 1.33437 14.2653 1.33398 14.0623V5.98504C1.34753 5.69396 1.4538 5.41449 1.63772 5.18633C1.82164 4.95817 2.07383 4.79295 2.35849 4.71411C2.60267 4.65001 2.85969 4.65065 3.10353 4.71598C3.34737 4.78129 3.56935 4.90899 3.74697 5.0861L7.37769 8.66863C7.38857 8.6795 7.40171 8.68791 7.41625 8.69321C7.43076 8.69851 7.44631 8.70062 7.46174 8.69934C7.47718 8.69808 7.49214 8.69348 7.50558 8.68588C7.51901 8.67827 7.53056 8.66784 7.53946 8.65533L10.1187 5.13701C10.2379 4.99419 10.3873 4.87878 10.5565 4.79884C10.7257 4.7189 10.9107 4.67639 11.0983 4.67426H17.807C17.9906 4.67457 18.172 4.71348 18.3391 4.78843C18.5062 4.86341 18.6552 4.97267 18.776 5.10891C18.8968 5.24515 18.9867 5.40525 19.0397 5.5785C19.0926 5.75174 19.1075 5.93413 19.0832 6.11347C19.0359 6.42457 18.8757 6.70824 18.6324 6.91182C18.389 7.1154 18.079 7.2251 17.7598 7.22057H14.0033C13.9844 7.22102 13.966 7.22645 13.95 7.23629C13.934 7.24613 13.9209 7.26004 13.9122 7.27653C13.9035 7.29305 13.8994 7.31156 13.9004 7.33014C13.9014 7.34872 13.9075 7.36669 13.9179 7.3822Z" fill="currentColor"/>
</svg>
