<svg width="20" height="20" viewBox="0 0 20 20" fill="none" xmlns="http://www.w3.org/2000/svg">
<path d="M10 20C9.76248 20 9.5252 19.94 9.31347 19.82L1.68653 15.494C1.26308 15.254 1 14.8062 1 14.3258V5.67418C1 5.19374 1.26308 4.74596 1.68653 4.50596L9.31347 0.180167C9.73715 -0.0600557 10.2631 -0.0600557 10.6868 0.180167L18.3135 4.50596C18.7369 4.74596 19 5.19374 19 5.67418V14.3258C19 14.8062 18.7369 15.254 18.3132 15.494L10.6865 19.82C10.4748 19.94 10.2373 20 10 20ZM10 0.888614C9.91902 0.888614 9.83804 0.909058 9.76588 0.949947L2.13894 5.27574C1.99462 5.35774 1.90482 5.5104 1.90482 5.67418V14.3258C1.90482 14.4895 1.99462 14.6422 2.13871 14.724L9.76565 19.05C9.9102 19.132 10.0896 19.132 10.2341 19.05L17.8606 14.724C18.0052 14.6422 18.0947 14.4895 18.0947 14.3258V5.67418C18.0947 5.5104 18.0049 5.35774 17.8606 5.27574L10.2341 0.949947C10.162 0.909058 10.081 0.888614 10 0.888614Z" fill="currentColor"/>
<path d="M7.56375 12.7814C7.41518 12.7814 7.27317 12.7055 7.19199 12.5746L5.09205 9.19156V12.344C5.09205 12.5858 4.89599 12.7816 4.65442 12.7816C4.41285 12.7816 4.2168 12.5856 4.2168 12.344V7.65637C4.2168 7.46076 4.34633 7.28921 4.53451 7.2356C4.72225 7.18199 4.92312 7.25945 5.0264 7.42575L7.12635 10.8088V7.65637C7.12635 7.41459 7.3224 7.21875 7.56397 7.21875C7.80554 7.21875 8.0016 7.41481 8.0016 7.65637V12.3438C8.0016 12.5394 7.87206 12.7112 7.68388 12.7648C7.64406 12.7759 7.60358 12.7814 7.56375 12.7814Z" fill="currentColor"/>
<path d="M9.38098 12.7814C9.1392 12.7814 8.94336 12.5853 8.94336 12.3438V7.65638C8.94336 7.41459 9.13942 7.21875 9.38098 7.21875H11.245C11.4868 7.21875 11.6827 7.41481 11.6827 7.65638C11.6827 7.89794 11.4866 8.094 11.245 8.094H9.81861V12.3438C9.81861 12.5853 9.62255 12.7814 9.38098 12.7814Z" fill="currentColor"/>
<path d="M11.245 10.4378H9.38098C9.1392 10.4378 8.94336 10.2417 8.94336 10.0001C8.94336 9.75856 9.13942 9.5625 9.38098 9.5625H11.245C11.4868 9.5625 11.6827 9.75856 11.6827 10.0001C11.6827 10.2417 11.4866 10.4378 11.245 10.4378Z" fill="currentColor"/>
<path d="M15.3456 8.094H12.6818C12.44 8.094 12.2441 7.89794 12.2441 7.65638C12.2441 7.41481 12.4402 7.21875 12.6818 7.21875H15.3458C15.5876 7.21875 15.7834 7.41481 15.7834 7.65638C15.7834 7.89794 15.5874 8.094 15.3456 8.094Z" fill="currentColor"/>
<path d="M14.0138 12.7814C13.772 12.7814 13.5762 12.5853 13.5762 12.3438V7.65638C13.5762 7.41459 13.7722 7.21875 14.0138 7.21875C14.2554 7.21875 14.4514 7.41481 14.4514 7.65638V12.3438C14.4514 12.5853 14.2554 12.7814 14.0138 12.7814Z" fill="currentColor"/>
</svg>
