<svg width="20" height="20" viewBox="0 0 20 20" fill="none" xmlns="http://www.w3.org/2000/svg">
<g clip-path="url(#clip0_2911_279735)">
<path d="M9.99984 18.9577C5.05817 18.9577 1.0415 14.941 1.0415 9.99935C1.0415 5.05768 5.05817 1.04102 9.99984 1.04102C10.3415 1.04102 10.6248 1.32435 10.6248 1.66602C10.6248 2.00768 10.3415 2.29102 9.99984 2.29102C5.74984 2.29102 2.2915 5.74935 2.2915 9.99935C2.2915 14.2493 5.74984 17.7077 9.99984 17.7077C14.2498 17.7077 17.7082 14.2493 17.7082 9.99935C17.7082 9.65768 17.9915 9.37435 18.3332 9.37435C18.6748 9.37435 18.9582 9.65768 18.9582 9.99935C18.9582 14.941 14.9415 18.9577 9.99984 18.9577Z" fill="currentColor"/>
<path d="M11.5004 9.1252C11.342 9.1252 11.1837 9.06686 11.0587 8.94186C10.817 8.7002 10.817 8.3002 11.0587 8.05853L17.892 1.2252C18.1337 0.983529 18.5337 0.983529 18.7754 1.2252C19.017 1.46686 19.017 1.86686 18.7754 2.10853L11.942 8.94186C11.8254 9.05853 11.667 9.1252 11.5004 9.1252Z" fill="currentColor"/>
<path d="M14.8585 9.7916H10.8335C10.4918 9.7916 10.2085 9.50827 10.2085 9.1666V5.1416C10.2085 4.79993 10.4918 4.5166 10.8335 4.5166C11.1752 4.5166 11.4585 4.79993 11.4585 5.1416V8.5416H14.8585C15.2002 8.5416 15.4835 8.82494 15.4835 9.1666C15.4835 9.50827 15.2002 9.7916 14.8585 9.7916Z" fill="currentColor"/>
</g>
<defs>
<clipPath id="clip0_2911_279735">
<rect width="20" height="20" fill="white"/>
</clipPath>
</defs>
</svg>
