<svg width="14" height="14" viewBox="0 0 14 14" fill="none" xmlns="http://www.w3.org/2000/svg">
<g clip-path="url(#clip0_2461_16486)">
<path fill-rule="evenodd" clip-rule="evenodd" d="M7 14C10.866 14 14 10.866 14 7C14 3.13401 10.866 0 7 0C3.13401 0 0 3.13401 0 7C0 10.866 3.13401 14 7 14ZM9.59063 4.375C9.65938 4.375 9.71563 4.43125 9.71563 4.5C9.71563 4.52969 9.70625 4.55938 9.6875 4.58125L7.65469 7.00313L9.68438 9.42344C9.70312 9.44688 9.71406 9.475 9.71406 9.50469C9.71406 9.575 9.65781 9.62969 9.58906 9.62969L8.55781 9.625L7.00625 7.775L5.45469 9.62656L4.42188 9.63125C4.35313 9.63125 4.29688 9.575 4.29688 9.50625C4.29721 9.47657 4.30768 9.4479 4.32656 9.425L6.35938 7.00469L4.32656 4.58281C4.30781 4.55938 4.29688 4.53125 4.29688 4.50156C4.29688 4.43125 4.35313 4.37656 4.42188 4.37656L5.45469 4.38125L7.00625 6.23125L8.55938 4.37969L9.59063 4.375Z" fill="currentColor"/>
</g>
<defs>
<clipPath id="clip0_2461_16486">
<rect width="14" height="14" fill="white"/>
</clipPath>
</defs>
</svg>
