<svg width="20" height="20" viewBox="0 0 20 20" fill="none" xmlns="http://www.w3.org/2000/svg">
<g clip-path="url(#clip0_407_33331)">
<path fill-rule="evenodd" clip-rule="evenodd" d="M10 20C15.5228 20 20 15.5228 20 10C20 4.47715 15.5228 0 10 0C4.47715 0 0 4.47715 0 10C0 15.5228 4.47715 20 10 20ZM13.7009 6.25C13.7991 6.25 13.8795 6.33036 13.8795 6.42857C13.8795 6.47098 13.8661 6.51339 13.8393 6.54464L10.9353 10.0045L13.8348 13.4621C13.8616 13.4955 13.8772 13.5357 13.8772 13.5781C13.8772 13.6786 13.7969 13.7567 13.6987 13.7567L12.2254 13.75L10.0089 11.1071L7.79241 13.7522L6.31696 13.7589C6.21875 13.7589 6.13839 13.6786 6.13839 13.5804C6.13887 13.538 6.15383 13.497 6.1808 13.4643L9.08482 10.0067L6.1808 6.54688C6.15402 6.51339 6.13839 6.47321 6.13839 6.4308C6.13839 6.33036 6.21875 6.25223 6.31696 6.25223L7.79241 6.25893L10.0089 8.90179L12.2277 6.2567L13.7009 6.25Z" fill="#959393"/>
</g>
<defs>
<clipPath id="clip0_407_33331">
<rect width="20" height="20" fill="white"/>
</clipPath>
</defs>
</svg>
