<svg width="20" height="20" viewBox="0 0 20 20" fill="none" xmlns="http://www.w3.org/2000/svg">
<path d="M17.9519 16.8499L12.758 11.656C13.564 10.614 13.9999 9.33997 13.9999 7.99997C13.9999 6.39598 13.374 4.89199 12.242 3.75799C11.11 2.624 9.60197 2 7.99997 2C6.39798 2 4.88999 2.626 3.75799 3.75799C2.624 4.88999 2 6.39598 2 7.99997C2 9.60197 2.626 11.11 3.75799 12.242C4.88999 13.376 6.39598 13.9999 7.99997 13.9999C9.33997 13.9999 10.612 13.564 11.654 12.76L16.8479 17.9519C16.8632 17.9672 16.8812 17.9793 16.9012 17.9875C16.9211 17.9958 16.9424 18 16.9639 18C16.9855 18 17.0068 17.9958 17.0267 17.9875C17.0466 17.9793 17.0647 17.9672 17.0799 17.9519L17.9519 17.0819C17.9672 17.0667 17.9793 17.0486 17.9875 17.0287C17.9958 17.0088 18 16.9875 18 16.9659C18 16.9444 17.9958 16.9231 17.9875 16.9032C17.9793 16.8832 17.9672 16.8652 17.9519 16.8499V16.8499ZM11.168 11.168C10.32 12.014 9.19597 12.48 7.99997 12.48C6.80398 12.48 5.67998 12.014 4.83199 11.168C3.98599 10.32 3.51999 9.19597 3.51999 7.99997C3.51999 6.80398 3.98599 5.67798 4.83199 4.83199C5.67998 3.98599 6.80398 3.51999 7.99997 3.51999C9.19597 3.51999 10.322 3.98399 11.168 4.83199C12.014 5.67998 12.48 6.80398 12.48 7.99997C12.48 9.19597 12.014 10.322 11.168 11.168Z" fill="currentColor"/>
</svg>
