<svg width="20" height="20" viewBox="0 0 20 20" fill="none" xmlns="http://www.w3.org/2000/svg">
<g clip-path="url(#clip0_1747_76089)">
<path d="M19.7143 9.83081L0.533139 0.0420061C0.455175 0.00232666 0.36544 -0.00749257 0.280053 0.0126574C0.0838875 0.0596946 -0.0398686 0.256921 0.00679306 0.4553L1.9223 8.57964C1.9512 8.7019 2.04016 8.80153 2.15958 8.84149L5.551 10.0321L2.14183 11.1767C2.02173 11.2173 1.93108 11.3134 1.9024 11.4353L-0.157068 19.5443C-0.178526 19.6293 -0.170085 19.7192 -0.131588 19.7955C-0.0433346 19.978 0.177115 20.0532 0.362122 19.9646L19.7087 10.4917C19.7804 10.4577 19.8384 10.3982 19.8759 10.3294C19.9673 10.1457 19.8955 9.92416 19.7143 9.83081ZM2.13344 17.2521L3.33247 12.5251L10.1508 10.2382C10.2039 10.2202 10.248 10.179 10.2669 10.1239C10.3 10.0274 10.2502 9.92339 10.1538 9.88819L3.3755 7.51164L2.26221 2.78744L16.6624 10.1372L2.13344 17.2521Z" fill="currentColor"/>
</g>
<defs>
<clipPath id="clip0_1747_76089">
<rect width="20" height="20" fill="white"/>
</clipPath>
</defs>
</svg>
