<svg width="14" height="14" viewBox="0 0 14 14" fill="none" xmlns="http://www.w3.org/2000/svg">
<g clip-path="url(currentColor">
<path d="M6.9999 13.2704C3.54073 13.2704 0.729065 10.4587 0.729065 6.99953C0.729065 3.54037 3.54073 0.728699 6.9999 0.728699C7.23906 0.728699 7.4374 0.927032 7.4374 1.1662C7.4374 1.40537 7.23906 1.6037 6.9999 1.6037C4.0249 1.6037 1.60406 4.02453 1.60406 6.99953C1.60406 9.97453 4.0249 12.3954 6.9999 12.3954C9.9749 12.3954 12.3957 9.97453 12.3957 6.99953C12.3957 6.76037 12.5941 6.56203 12.8332 6.56203C13.0724 6.56203 13.2707 6.76037 13.2707 6.99953C13.2707 10.4587 10.4591 13.2704 6.9999 13.2704Z" fill="currentColor"/>
<path d="M7.58335 6.85451C7.47252 6.85451 7.36168 6.81367 7.27418 6.72617C7.10502 6.55701 7.10502 6.27701 7.27418 6.10784L12.0575 1.32451C12.2267 1.15534 12.5067 1.15534 12.6758 1.32451C12.845 1.49367 12.845 1.77367 12.6758 1.94284L7.89252 6.72617C7.80502 6.81367 7.69418 6.85451 7.58335 6.85451Z" fill="currentColor"/>
<path d="M12.8332 4.4212C12.594 4.4212 12.3957 4.22287 12.3957 3.9837V1.6037H10.0157C9.77652 1.6037 9.57819 1.40537 9.57819 1.1662C9.57819 0.927032 9.77652 0.728699 10.0157 0.728699H12.8332C13.0724 0.728699 13.2707 0.927032 13.2707 1.1662V3.9837C13.2707 4.22287 13.0724 4.4212 12.8332 4.4212Z" fill="currentColor"/>
</g>
<defs>
<clipPath id="clip0_263_79499">
<rect width="14" height="14" fill="white"/>
</clipPath>
</defs>
</svg>
