<svg viewBox="0 0 81 21" fill="none" xmlns="http://www.w3.org/2000/svg">
  <circle cx="4" cy="9" r="4" fill="#BDFE33" />
  <path
    d="M19.36 16.2C18.7733 16.2 18.22 16.14 17.7 16.02C17.18 15.9 16.7133 15.7267 16.3 15.5C15.8867 15.26 15.5467 14.9667 15.28 14.62C15.0133 14.26 14.8333 13.84 14.74 13.36L17.04 12.72C17.2 13.2667 17.48 13.6533 17.88 13.88C18.28 14.0933 18.74 14.2 19.26 14.2C19.6867 14.2 20.0467 14.12 20.34 13.96C20.6333 13.7867 20.78 13.5267 20.78 13.18C20.78 12.9667 20.72 12.7867 20.6 12.64C20.48 12.4933 20.3133 12.3733 20.1 12.28C19.9 12.1733 19.6667 12.0867 19.4 12.02C19.1333 11.9533 18.8533 11.8933 18.56 11.84C18.0267 11.7333 17.54 11.6133 17.1 11.48C16.66 11.3333 16.28 11.1467 15.96 10.92C15.6533 10.6933 15.4133 10.4133 15.24 10.08C15.0667 9.74667 14.98 9.34 14.98 8.86C14.98 7.86 15.3467 7.08667 16.08 6.54C16.8267 5.99333 17.8133 5.72 19.04 5.72C19.52 5.72 19.9867 5.77333 20.44 5.88C20.8933 5.97333 21.3067 6.12667 21.68 6.34C22.0533 6.54 22.3733 6.80667 22.64 7.14C22.92 7.46 23.12 7.85333 23.24 8.32L20.82 8.86C20.66 8.44667 20.42 8.15333 20.1 7.98C19.7933 7.79333 19.4067 7.7 18.94 7.7C18.5133 7.7 18.1667 7.78 17.9 7.94C17.6333 8.08667 17.5 8.30667 17.5 8.6C17.5 8.76 17.5533 8.9 17.66 9.02C17.78 9.14 17.94 9.24667 18.14 9.34C18.34 9.42 18.5733 9.49333 18.84 9.56C19.1067 9.62667 19.3867 9.69333 19.68 9.76C20.2667 9.88 20.7933 10.02 21.26 10.18C21.7267 10.3267 22.12 10.52 22.44 10.76C22.76 10.9867 23.0067 11.2733 23.18 11.62C23.3533 11.9667 23.44 12.4 23.44 12.92C23.44 13.4933 23.3267 13.9867 23.1 14.4C22.8733 14.8133 22.5733 15.1533 22.2 15.42C21.8267 15.6867 21.3933 15.88 20.9 16C20.4067 16.1333 19.8933 16.2 19.36 16.2ZM32.7939 5.92H35.5539V15.74C35.5539 16.66 35.4272 17.4533 35.1739 18.12C34.9339 18.7867 34.5872 19.3333 34.1339 19.76C33.6806 20.1867 33.1272 20.5 32.4739 20.7C31.8339 20.9 31.1139 21 30.3139 21C28.8606 21 27.7206 20.7133 26.8939 20.14C26.0672 19.5667 25.4739 18.8067 25.1139 17.86L27.4339 16.9C27.7272 17.5533 28.0872 18.04 28.5139 18.36C28.9539 18.6933 29.5139 18.86 30.1939 18.86C31.1139 18.86 31.7739 18.5933 32.1739 18.06C32.5872 17.54 32.7939 16.84 32.7939 15.96V14.3C32.5139 14.7267 32.0939 15.0733 31.5339 15.34C30.9739 15.6067 30.3406 15.74 29.6339 15.74C28.9939 15.74 28.3939 15.62 27.8339 15.38C27.2739 15.14 26.7806 14.8 26.3539 14.36C25.9406 13.92 25.6139 13.3933 25.3739 12.78C25.1339 12.1533 25.0139 11.46 25.0139 10.7C25.0139 9.94 25.1339 9.25333 25.3739 8.64C25.6272 8.02667 25.9606 7.50667 26.3739 7.08C26.8006 6.64 27.2939 6.30667 27.8539 6.08C28.4272 5.84 29.0339 5.72 29.6739 5.72C30.3939 5.72 31.0206 5.86 31.5539 6.14C32.1006 6.40667 32.5139 6.76667 32.7939 7.22V5.92ZM30.3139 13.52C30.7006 13.52 31.0539 13.4533 31.3739 13.32C31.6939 13.1733 31.9672 12.9733 32.1939 12.72C32.4339 12.4667 32.6206 12.1733 32.7539 11.84C32.8872 11.4933 32.9539 11.1133 32.9539 10.7C32.9539 10.3 32.8872 9.92667 32.7539 9.58C32.6206 9.23333 32.4339 8.94 32.1939 8.7C31.9672 8.44667 31.6939 8.25333 31.3739 8.12C31.0539 7.97333 30.7006 7.9 30.3139 7.9C29.9272 7.9 29.5739 7.97333 29.2539 8.12C28.9339 8.25333 28.6539 8.44667 28.4139 8.7C28.1872 8.94 28.0072 9.23333 27.8739 9.58C27.7406 9.92667 27.6739 10.3 27.6739 10.7C27.6739 11.1133 27.7406 11.4933 27.8739 11.84C28.0072 12.1733 28.1872 12.4667 28.4139 12.72C28.6539 12.9733 28.9339 13.1733 29.2539 13.32C29.5872 13.4533 29.9406 13.52 30.3139 13.52ZM40.7734 7.36C41.0801 6.86667 41.5268 6.47333 42.1134 6.18C42.7001 5.87333 43.3934 5.72 44.1934 5.72V8.3C43.0068 8.3 42.1401 8.52667 41.5934 8.98C41.0468 9.42 40.7734 10.22 40.7734 11.38V16H37.9934V5.92H40.7734V7.36ZM54.5488 14.18C54.5488 14.4867 54.5554 14.7733 54.5687 15.04C54.5821 15.2933 54.6354 15.5267 54.7288 15.74V16H51.9888L51.8688 14.62C51.5221 15.1533 51.0354 15.5533 50.4088 15.82C49.7954 16.0733 49.1554 16.2 48.4888 16.2C48.0888 16.2 47.6888 16.1533 47.2888 16.06C46.9021 15.9667 46.5488 15.8133 46.2288 15.6C45.9221 15.3733 45.6754 15.0867 45.4888 14.74C45.3021 14.3933 45.2088 13.9667 45.2088 13.46C45.2088 12.9 45.3221 12.4333 45.5488 12.06C45.7754 11.6733 46.0688 11.3533 46.4288 11.1C46.7888 10.8467 47.1954 10.6467 47.6488 10.5C48.1021 10.3533 48.5554 10.2333 49.0088 10.14L50.8488 9.72C51.1154 9.65333 51.3354 9.57333 51.5088 9.48C51.6821 9.38667 51.7688 9.22 51.7688 8.98C51.7688 8.51333 51.5888 8.18 51.2288 7.98C50.8821 7.78 50.4754 7.68 50.0088 7.68C49.4488 7.68 48.9888 7.81333 48.6288 8.08C48.2688 8.33333 48.0354 8.71333 47.9288 9.22L45.2688 8.82C45.4954 7.74 46.0288 6.95333 46.8688 6.46C47.7088 5.96667 48.7688 5.72 50.0488 5.72C51.5154 5.72 52.6288 6.03333 53.3888 6.66C54.1621 7.28667 54.5488 8.20667 54.5488 9.42V14.18ZM49.3088 14.28C49.6421 14.28 49.9621 14.2133 50.2688 14.08C50.5888 13.9467 50.8688 13.7533 51.1088 13.5C51.3621 13.2333 51.5621 12.9067 51.7088 12.52C51.8554 12.12 51.9288 11.66 51.9288 11.14L49.4488 11.78C49.0621 11.86 48.7154 12.0067 48.4088 12.22C48.1154 12.42 47.9688 12.7333 47.9688 13.16C47.9688 13.5333 48.0954 13.8133 48.3488 14C48.6021 14.1867 48.9221 14.28 49.3088 14.28ZM62.8592 5.72C63.5392 5.72 64.1726 5.84 64.7592 6.08C65.3592 6.30667 65.8792 6.64667 66.3192 7.1C66.7592 7.55333 67.1059 8.1 67.3592 8.74C67.6259 9.38 67.7592 10.1133 67.7592 10.94C67.7592 11.7533 67.6259 12.4867 67.3592 13.14C67.1059 13.7933 66.7592 14.3467 66.3192 14.8C65.8792 15.2533 65.3592 15.6 64.7592 15.84C64.1726 16.08 63.5392 16.2 62.8592 16.2C62.1792 16.2 61.5592 16.08 60.9992 15.84C60.4392 15.6 60.0059 15.2467 59.6992 14.78V20.86H56.9192V5.92H59.6992V7.1C60.0059 6.64667 60.4392 6.30667 60.9992 6.08C61.5592 5.84 62.1792 5.72 62.8592 5.72ZM62.2792 13.9C63.0526 13.9 63.6926 13.64 64.1992 13.12C64.7192 12.5867 64.9792 11.86 64.9792 10.94C64.9792 10.02 64.7192 9.3 64.1992 8.78C63.6926 8.26 63.0526 8 62.2792 8C61.4926 8 60.8459 8.26 60.3392 8.78C59.8326 9.3 59.5792 10.02 59.5792 10.94C59.5792 11.86 59.8326 12.5867 60.3392 13.12C60.8459 13.64 61.4926 13.9 62.2792 13.9ZM75.8913 5.72C77.0779 5.72 77.9846 6.04 78.6113 6.68C79.2513 7.32 79.5713 8.28 79.5713 9.56V16H76.7913V9.98C76.7913 9.23333 76.6113 8.70667 76.2513 8.4C75.8913 8.08 75.4179 7.92 74.8313 7.92C74.5513 7.92 74.2713 7.96 73.9913 8.04C73.7246 8.12 73.4779 8.26 73.2513 8.46C73.0379 8.66 72.8646 8.92667 72.7313 9.26C72.5979 9.59333 72.5313 10.0133 72.5313 10.52V16H69.7513V0.999999H72.5313V7.18C72.9046 6.72667 73.3713 6.37333 73.9313 6.12C74.4913 5.85333 75.1446 5.72 75.8913 5.72Z"
    fill="white" />
</svg>