<svg width="20" height="20" viewBox="0 0 20 20" fill="none" xmlns="http://www.w3.org/2000/svg">
<g clip-path="url(#clip0_1730_70810)">
<path d="M10 1C5.02891 1 1 5.02891 1 10C1 14.9711 5.02891 19 10 19C14.9711 19 19 14.9711 19 10C19 5.02891 14.9711 1 10 1Z" stroke="currentColor" stroke-width="1.2"/>
<path d="M12.2547 10.9355C11.9049 10.9355 11.6219 11.2186 11.6219 11.5684C11.6219 12.4631 10.8941 13.1908 9.99941 13.1908C9.10469 13.1908 8.37695 12.4631 8.37695 11.5684C8.37695 11.2186 8.09395 10.9355 7.74414 10.9355C7.39434 10.9355 7.11133 11.2186 7.11133 11.5684C7.11133 13.1609 8.40684 14.4564 9.99941 14.4564C11.592 14.4564 12.8875 13.1609 12.8875 11.5684C12.8875 11.2186 12.6045 10.9355 12.2547 10.9355Z" fill="currentColor"/>
<path d="M4.41211 7.72266C4.41211 8.30514 4.88431 8.77734 5.4668 8.77734C6.04928 8.77734 6.52148 8.30514 6.52148 7.72266C6.52148 7.14017 6.04928 6.66797 5.4668 6.66797C4.88431 6.66797 4.41211 7.14017 4.41211 7.72266Z" fill="currentColor"/>
<path d="M13.4717 7.72266C13.4717 8.30514 13.9439 8.77734 14.5264 8.77734C15.1089 8.77734 15.5811 8.30514 15.5811 7.72266C15.5811 7.14017 15.1089 6.66797 14.5264 6.66797C13.9439 6.66797 13.4717 7.14017 13.4717 7.72266Z" fill="currentColor"/>
</g>
<defs>
<clipPath id="clip0_1730_70810">
<rect width="20" height="20" fill="currentColor"/>
</clipPath>
</defs>
</svg>
