<svg width="100%" height="100%" viewBox="0 0 20 20" fill="none" xmlns="http://www.w3.org/2000/svg">
<path d="M10.1007 17.0211C10.0554 17.0211 10.0121 17.0194 9.97921 17.0178C9.9531 17.0201 9.92614 17.0211 9.89914 17.0211C8.94647 17.0211 8.30948 16.5707 7.74736 16.173C7.34446 15.8884 6.96449 15.6197 6.51934 15.5457C6.30071 15.5094 6.08323 15.491 5.8731 15.491C5.49449 15.491 5.19527 15.5498 4.97682 15.5925C4.84239 15.6187 4.72647 15.6412 4.63688 15.6412C4.54305 15.6412 4.42904 15.6204 4.38153 15.4582C4.34387 15.3302 4.31687 15.2062 4.2908 15.0868C4.22558 14.7885 4.17828 14.6063 4.06656 14.5891C2.8717 14.4047 2.16573 14.1331 2.0251 13.8042C2.01037 13.7697 2.00213 13.7349 2.0003 13.7005C1.99483 13.6025 2.06404 13.5165 2.16067 13.5005C3.10956 13.3442 3.95328 12.8427 4.66852 12.0093C5.22257 11.3642 5.49466 10.7477 5.52387 10.6797C5.52514 10.6766 5.52663 10.6734 5.52816 10.6705C5.66602 10.3907 5.69345 10.149 5.60993 9.9522C5.45598 9.58913 4.94608 9.42736 4.60873 9.32032C4.52483 9.29378 4.44548 9.26864 4.38225 9.24355C4.08321 9.12543 3.5914 8.87585 3.65691 8.53137C3.70464 8.28018 4.03689 8.10525 4.3054 8.10525C4.37996 8.10525 4.44603 8.11832 4.50165 8.14444C4.80507 8.28659 5.07804 8.35865 5.3128 8.35865C5.60475 8.35865 5.74576 8.24749 5.77986 8.2159C5.77145 8.06015 5.76118 7.8955 5.75124 7.73975C5.75124 7.73958 5.75103 7.73772 5.75103 7.73772C5.6825 6.64756 5.59703 5.29089 5.94405 4.5129C6.9827 2.18411 9.18539 2.00301 9.83553 2.00301C9.85285 2.00301 10.1189 2.00038 10.1189 2.00038C10.1309 2.00017 10.144 2 10.1575 2C10.8094 2 13.0167 2.1813 14.0559 4.51149C14.403 5.28999 14.3174 6.64782 14.2487 7.73912L14.2454 7.79134C14.236 7.93953 14.2273 8.07977 14.22 8.21573C14.2521 8.24528 14.3811 8.34718 14.6436 8.3575C14.8674 8.34892 15.1246 8.27721 15.4078 8.14461C15.4954 8.10351 15.5923 8.09497 15.6581 8.09497C15.7576 8.09497 15.8588 8.11433 15.9432 8.14953L15.9477 8.15127C16.188 8.23657 16.3454 8.40705 16.3488 8.58615C16.3518 8.7531 16.2278 9.00263 15.6175 9.24364C15.555 9.26839 15.4753 9.2937 15.3911 9.3204C15.0534 9.42757 14.5439 9.58926 14.39 9.95212C14.3063 10.1489 14.3338 10.3906 14.4718 10.6702C14.4733 10.6733 14.4746 10.6764 14.4761 10.6796C14.5185 10.7791 15.5463 13.1225 17.8393 13.5003C17.9359 13.5164 18.0052 13.6024 17.9997 13.7003C17.9977 13.7355 17.9892 13.7706 17.9743 13.805C17.8347 14.132 17.1287 14.4032 15.9335 14.5878C15.8213 14.6052 15.7741 14.7865 15.7095 15.0833C15.6827 15.2058 15.6555 15.326 15.6183 15.4523C15.5836 15.571 15.5062 15.6291 15.382 15.6291H15.3632C15.2824 15.6291 15.1678 15.6144 15.0232 15.5861C14.7706 15.5369 14.4873 15.4912 14.1269 15.4912C13.9168 15.4912 13.6994 15.5096 13.4805 15.5458C13.0359 15.6199 12.6559 15.8881 12.2537 16.1724C11.6905 16.5707 11.0533 17.0211 10.1007 17.0211Z" fill="currentColor"/>
</svg>
