<svg width="100%" height="100%" viewBox="0 0 20 20" fill="none" xmlns="http://www.w3.org/2000/svg">
<path d="M2.74796 10C2.15076 10 1.65942 10.4862 1.7367 11.0783C1.90189 12.3442 2.35647 13.5603 3.07107 14.6298C3.98674 16.0002 5.28823 17.0683 6.81095 17.699C8.33367 18.3298 10.0092 18.4948 11.6257 18.1733C13.2422 17.8517 14.7271 17.058 15.8925 15.8926C17.058 14.7272 17.8516 13.2423 18.1732 11.6258C18.4947 10.0093 18.3297 8.33373 17.699 6.81101C17.0682 5.28829 16.0001 3.98681 14.6297 3.07113C13.5603 2.35653 12.3442 1.90195 11.0783 1.73676C10.4861 1.65948 9.99998 2.15083 9.99998 2.74802C9.99998 3.34521 10.4877 3.81971 11.0758 3.92382C11.9131 4.07208 12.7147 4.39253 13.4282 4.86928C14.443 5.54733 15.2339 6.51106 15.701 7.63861C16.168 8.76616 16.2902 10.0069 16.0521 11.2039C15.814 12.4009 15.2263 13.5004 14.3633 14.3634C13.5003 15.2264 12.4008 15.8141 11.2038 16.0522C10.0068 16.2903 8.7661 16.1681 7.63855 15.701C6.511 15.234 5.54726 14.4431 4.86922 13.4283C4.39247 12.7148 4.07202 11.9132 3.92376 11.0758C3.81964 10.4878 3.34515 10 2.74796 10Z" fill="currentColor"/>
</svg>
