<svg width="100%" height="100%" viewBox="0 0 20 20" fill="none" xmlns="http://www.w3.org/2000/svg">
<path d="M8.45594 17.4678C10.9578 17.4891 12.9899 15.4486 12.9899 12.9466V6.88886C13.3493 7.43775 13.8397 7.8885 14.4169 8.20043C14.9941 8.51235 15.6399 8.67564 16.2959 8.67555C16.4174 8.675 16.5387 8.66885 16.6598 8.65709L16.6667 8.65559V6.19188C14.7589 6.05251 13.225 4.56759 13.0249 2.6665H10.9035L10.8814 13.002C10.8814 14.2692 9.76223 15.2676 8.49497 15.2676C7.22795 15.2676 6.20083 14.2405 6.20083 12.9735C6.20083 11.7065 7.22795 10.6794 8.49497 10.6794C8.58986 10.6794 8.68052 10.6962 8.77277 10.7073V8.49224C8.68052 8.48644 8.5888 8.47801 8.49497 8.47801C6.01247 8.47801 4 10.4905 4 12.973C4 15.4425 5.99141 17.4468 8.45594 17.4678Z" fill="currentColor"/>
</svg>
