<svg width="100%" height="100%" viewBox="0 0 20 20" fill="none" xmlns="http://www.w3.org/2000/svg">
<path d="M17.8 5.46009C17.2555 5.70797 16.6703 5.87491 16.0561 5.95016C16.6832 5.56506 17.1648 4.95485 17.3912 4.22765C16.8047 4.58429 16.1547 4.84355 15.4628 4.9833C14.9097 4.37814 14.1197 4 13.2465 4C11.2861 4 9.84562 5.87555 10.2884 7.82255C7.7656 7.69292 5.52833 6.45351 4.03045 4.56975C3.23495 5.96913 3.6179 7.79978 4.96963 8.72681C4.4726 8.71037 4.00393 8.57062 3.59508 8.33728C3.56178 9.77967 4.57003 11.1291 6.0303 11.4295C5.60295 11.5483 5.1349 11.5762 4.65883 11.4826C5.04487 12.7195 6.16597 13.6193 7.4955 13.6446C6.219 14.6709 4.61073 15.1293 3 14.9346C4.34372 15.818 5.94027 16.3333 7.6546 16.3333C13.2922 16.3333 16.4773 11.451 16.2849 7.07195C16.8781 6.63247 17.393 6.08422 17.8 5.46009Z" fill="currentColor"/>
</svg>
