<svg width="20" height="20" viewBox="0 0 20 20" fill="none" xmlns="http://www.w3.org/2000/svg">
<path d="M7.6 8.39922C6.71634 8.39922 6 7.68287 6 6.79922C6 5.91556 6.71634 5.19922 7.6 5.19922C8.48368 5.19922 9.2 5.91556 9.2 6.79922C9.2 7.68287 8.48368 8.39922 7.6 8.39922Z" stroke="currentColor" stroke-width="1.2" stroke-linecap="round" stroke-linejoin="round"/>
<path d="M10.8 2H7.6C3.6 2 2 3.6 2 7.6V12.4C2 16.4 3.6 18 7.6 18H12.4C16.4 18 18 16.4 18 12.4V8.4" stroke="currentColor" stroke-width="1.2" stroke-linecap="round" stroke-linejoin="round"/>
<path d="M13 4.39922H17.4M15.2 6.59922V2.19922" stroke="currentColor" stroke-width="1.2" stroke-linecap="round"/>
<path d="M2.53516 15.562L6.47916 12.914C7.11116 12.49 8.02316 12.538 8.59112 13.026L8.85512 13.258C9.47912 13.794 10.4871 13.794 11.1111 13.258L14.4391 10.402C15.0631 9.866 16.0711 9.866 16.6951 10.402L17.9991 11.522" stroke="currentColor" stroke-width="1.2" stroke-linecap="round" stroke-linejoin="round"/>
</svg>
