<svg viewBox="0 0 14 14" fill="none" xmlns="http://www.w3.org/2000/svg">
  <g clip-path="url(#clip0_3983_53078)">
    <path
      d="M12.25 13.2712H1.75C1.51083 13.2712 1.3125 13.0729 1.3125 12.8337C1.3125 12.5946 1.51083 12.3962 1.75 12.3962H12.25C12.4892 12.3962 12.6875 12.5946 12.6875 12.8337C12.6875 13.0729 12.4892 13.2712 12.25 13.2712Z"
      fill="currentColor" />
    <path
      d="M3.26665 11.5209H2.33333C1.77333 11.5209 1.3125 11.0601 1.3125 10.5001V5.47176C1.3125 4.91176 1.77333 4.45093 2.33333 4.45093H3.26665C3.82665 4.45093 4.28749 4.91176 4.28749 5.47176V10.5001C4.28749 11.0601 3.82665 11.5209 3.26665 11.5209ZM2.33333 5.32009C2.25167 5.32009 2.1875 5.38426 2.1875 5.46592V10.5001C2.1875 10.5818 2.25167 10.6459 2.33333 10.6459H3.26665C3.34832 10.6459 3.41249 10.5818 3.41249 10.5001V5.47176C3.41249 5.39009 3.34832 5.32593 3.26665 5.32593H2.33333V5.32009Z"
      fill="currentColor" />
    <path
      d="M7.46734 11.5209H6.53402C5.97402 11.5209 5.51318 11.0601 5.51318 10.5001V3.61092C5.51318 3.05092 5.97402 2.59009 6.53402 2.59009H7.46734C8.02734 2.59009 8.48817 3.05092 8.48817 3.61092V10.5001C8.48817 11.0601 8.02734 11.5209 7.46734 11.5209ZM6.53402 3.46509C6.45235 3.46509 6.38818 3.52925 6.38818 3.61092V10.5001C6.38818 10.5818 6.45235 10.6459 6.53402 10.6459H7.46734C7.549 10.6459 7.61317 10.5818 7.61317 10.5001V3.61092C7.61317 3.52925 7.549 3.46509 7.46734 3.46509H6.53402Z"
      fill="currentColor" />
    <path
      d="M11.6663 11.5204H10.733C10.173 11.5204 9.71216 11.0596 9.71216 10.4996V1.74959C9.71216 1.18959 10.173 0.72876 10.733 0.72876H11.6663C12.2263 0.72876 12.6871 1.18959 12.6871 1.74959V10.4996C12.6871 11.0596 12.2263 11.5204 11.6663 11.5204ZM10.733 1.60376C10.6513 1.60376 10.5872 1.66793 10.5872 1.74959V10.4996C10.5872 10.5813 10.6513 10.6454 10.733 10.6454H11.6663C11.748 10.6454 11.8121 10.5813 11.8121 10.4996V1.74959C11.8121 1.66793 11.748 1.60376 11.6663 1.60376H10.733Z"
      fill="currentColor" />
  </g>
  <defs>
    <clipPath id="clip0_3983_53078">
      <rect width="14" height="14" fill="white" />
    </clipPath>
  </defs>
</svg>