<svg width="24" height="24" viewBox="0 0 24 24" fill="none" xmlns="http://www.w3.org/2000/svg">
<path d="M13 10H7" stroke="currentColor" stroke-width="1.5" stroke-linecap="round" stroke-linejoin="round"/>
<path d="M22 13.2536C22 13.656 21.5711 13.9852 21.0252 13.9999H19.1145C18.0617 13.9999 17.0966 13.4218 17.0089 12.6316C16.9504 12.1706 17.1843 11.7389 17.5938 11.4389C17.9545 11.1608 18.4516 10.9999 18.9975 10.9999H21.0252C21.5711 11.0145 22 11.3438 22 11.7462V13.2536Z" stroke="currentColor" stroke-width="1.5" stroke-linecap="round" stroke-linejoin="round"/>
<path d="M16.88 12.1482C16.97 13.0376 17.96 13.6882 19.04 13.6882H21V14.8824C21 17.3529 19 19 16 19H7C4 19 2 17.3529 2 14.8824V9.11765C2 6.87765 3.64 5.31294 6.19 5.04941C6.45 5.01647 6.72 5 7 5H16C16.26 5 16.51 5.00823 16.75 5.04117C19.33 5.28823 21 6.86118 21 9.11765V10.3118H18.92C18.36 10.3118 17.85 10.4929 17.48 10.8059C17.06 11.1435 16.82 11.6294 16.88 12.1482Z" stroke="currentColor" stroke-width="1.5" stroke-linecap="round" stroke-linejoin="round"/>
</svg>
